<svg width="18" height="18" viewBox="0 0 18 18" fill="none" xmlns="http://www.w3.org/2000/svg">
<rect width="18" height="18" rx="2" fill="#0AB356"/>
<path fill-rule="evenodd" clip-rule="evenodd" d="M12.9927 5.28025C12.6211 4.90658 12.033 4.90658 11.6614 5.28025L9.00018 7.95575L6.33911 5.28025C5.96731 4.90658 5.37942 4.90658 5.00775 5.28025C4.63609 5.65391 4.63609 6.24496 5.00775 6.61876L7.66895 9.29413L9.00018 10.6326L10.3315 9.29413L12.9926 6.61876C13.3644 6.24496 13.3644 5.65391 12.9927 5.28025" fill="white"/>
<path fill-rule="evenodd" clip-rule="evenodd" d="M12.3293 13.6901C12.855 13.6901 13.2708 13.2721 13.2708 12.7435L13.2705 7.03137L11.3877 8.92413L11.388 12.7435C11.388 13.2721 11.8037 13.6901 12.3293 13.6901" fill="white"/>
<path fill-rule="evenodd" clip-rule="evenodd" d="M5.67046 13.6901C5.14474 13.6901 4.729 13.2721 4.729 12.7435L4.72928 7.03137L6.61206 8.92413L6.61178 12.7435C6.61178 13.2721 6.19604 13.6901 5.67046 13.6901" fill="white"/>
</svg>
