<svg width="116" height="24" viewBox="0 0 116 24" fill="none" xmlns="http://www.w3.org/2000/svg">
<rect width="116" height="24" rx="12" fill="#EDEFF0"/>
<path d="M9.008 16.5V8.73H10.282V16.5H9.008ZM12.1073 11.838C12.1073 11.4273 12.1539 11.026 12.2473 10.634C12.3406 10.2327 12.5086 9.88267 12.7513 9.584C13.0033 9.276 13.3439 9.02867 13.7733 8.842C14.2026 8.65533 14.7439 8.562 15.3972 8.562C16.0413 8.562 16.5733 8.65533 16.9933 8.842C17.4226 9.02867 17.7633 9.276 18.0153 9.584C18.2673 9.88267 18.4399 10.2327 18.5333 10.634C18.6359 11.026 18.6873 11.4273 18.6873 11.838V16.5H17.4273V11.67C17.4273 11.4367 17.3993 11.2033 17.3433 10.97C17.2873 10.7273 17.1846 10.508 17.0353 10.312C16.8859 10.116 16.6806 9.95733 16.4193 9.836C16.1579 9.71467 15.8173 9.654 15.3972 9.654C14.9773 9.654 14.6319 9.71467 14.3613 9.836C14.0999 9.95733 13.8946 10.116 13.7453 10.312C13.5959 10.508 13.4933 10.7273 13.4373 10.97C13.3813 11.2033 13.3533 11.4367 13.3533 11.67V14.89L15.1173 12.874H14.4033V11.908H16.3633V12.874L13.3533 16.5H12.1073V11.838ZM20.086 14.512C20.086 14.1293 20.1514 13.7933 20.282 13.504C20.4127 13.2147 20.5854 12.972 20.8 12.776C21.0147 12.5707 21.2667 12.4027 21.556 12.272C21.8454 12.1413 22.144 12.0433 22.452 11.978C22.7694 11.9033 23.0867 11.852 23.404 11.824C23.7307 11.796 24.0387 11.782 24.328 11.782C24.5054 11.782 24.678 11.7867 24.846 11.796C25.014 11.796 25.1727 11.796 25.322 11.796V11.11C25.322 10.7927 25.2707 10.5407 25.168 10.354C25.0654 10.1673 24.93 10.0227 24.762 9.92C24.594 9.81733 24.4074 9.74733 24.202 9.71C24.006 9.67267 23.8054 9.654 23.6 9.654C23.3294 9.654 23.0774 9.682 22.844 9.738C22.62 9.78467 22.424 9.864 22.256 9.976C22.088 10.088 21.9527 10.242 21.85 10.438C21.7567 10.634 21.7007 10.872 21.682 11.152H20.394C20.4127 10.676 20.5107 10.2747 20.688 9.948C20.8747 9.62133 21.1127 9.36 21.402 9.164C21.7007 8.95867 22.046 8.814 22.438 8.73C22.83 8.63667 23.2454 8.59 23.684 8.59C24.0014 8.59 24.328 8.62267 24.664 8.688C25.0094 8.75333 25.322 8.87933 25.602 9.066C25.882 9.24333 26.1107 9.49533 26.288 9.822C26.4747 10.1393 26.568 10.5547 26.568 11.068V16.5H25.322V12.874C25.2567 12.8553 25.1634 12.8413 25.042 12.832C24.9207 12.8227 24.7714 12.818 24.594 12.818C24.426 12.818 24.2254 12.8273 23.992 12.846C23.768 12.8553 23.5347 12.8833 23.292 12.93C23.0587 12.9673 22.8254 13.0233 22.592 13.098C22.368 13.1633 22.1627 13.2567 21.976 13.378C21.7987 13.4993 21.654 13.644 21.542 13.812C21.43 13.98 21.374 14.1807 21.374 14.414C21.374 14.6567 21.4207 14.8573 21.514 15.016C21.6167 15.1747 21.738 15.3007 21.878 15.394C22.0274 15.478 22.1954 15.5387 22.382 15.576C22.5687 15.604 22.76 15.618 22.956 15.618C23.096 15.618 23.2267 15.6133 23.348 15.604C23.4694 15.5853 23.5907 15.562 23.712 15.534V16.514C23.5347 16.5607 23.362 16.598 23.194 16.626C23.0354 16.654 22.8534 16.668 22.648 16.668C22.312 16.668 21.9854 16.626 21.668 16.542C21.3507 16.4673 21.0754 16.346 20.842 16.178C20.618 16.01 20.436 15.7907 20.296 15.52C20.156 15.2493 20.086 14.9133 20.086 14.512ZM20.1207 7.428L20.6247 6.462H26.5607V7.428H20.1207ZM28.3947 16.5V8.73H29.6687V16.5H28.3947ZM35.932 12.622C35.932 11.586 35.7733 10.8253 35.456 10.34C35.1386 9.85467 34.7 9.612 34.14 9.612C33.7013 9.612 33.3326 9.75667 33.034 10.046C32.7446 10.3353 32.5766 10.7787 32.53 11.376H31.242C31.2606 10.9653 31.34 10.5873 31.48 10.242C31.6293 9.89667 31.8253 9.598 32.068 9.346C32.32 9.094 32.6186 8.898 32.964 8.758C33.3186 8.618 33.7106 8.548 34.14 8.548C34.672 8.548 35.134 8.646 35.526 8.842C35.918 9.038 36.24 9.31333 36.492 9.668C36.7533 10.0227 36.9446 10.452 37.066 10.956C37.1966 11.46 37.262 12.0153 37.262 12.622C37.262 13.2287 37.1966 13.784 37.066 14.288C36.9446 14.7827 36.7533 15.2073 36.492 15.562C36.24 15.9167 35.918 16.192 35.526 16.388C35.134 16.5747 34.672 16.668 34.14 16.668C33.7106 16.668 33.3186 16.6027 32.964 16.472C32.6186 16.332 32.32 16.136 32.068 15.884C31.8253 15.6227 31.6293 15.324 31.48 14.988C31.34 14.6427 31.2606 14.26 31.242 13.84H32.53C32.5766 14.4373 32.7446 14.8853 33.034 15.184C33.3326 15.4733 33.7013 15.618 34.14 15.618C34.7 15.618 35.1386 15.3753 35.456 14.89C35.7733 14.4047 35.932 13.6487 35.932 12.622ZM38.406 11.138C38.49 10.7553 38.616 10.4053 38.784 10.088C38.952 9.77067 39.1714 9.5 39.442 9.276C39.7127 9.04267 40.0347 8.86533 40.408 8.744C40.7907 8.61333 41.2294 8.548 41.724 8.548C42.34 8.548 42.8627 8.65533 43.292 8.87C43.7307 9.07533 44.0807 9.36467 44.342 9.738C44.6127 10.102 44.8087 10.5313 44.93 11.026C45.0514 11.5207 45.112 12.0573 45.112 12.636C45.112 13.1773 45.0514 13.6953 44.93 14.19C44.8087 14.6753 44.6127 15.1 44.342 15.464C44.0714 15.828 43.7214 16.122 43.292 16.346C42.8627 16.5607 42.3447 16.668 41.738 16.668C41.122 16.668 40.5994 16.5607 40.17 16.346C39.7407 16.1313 39.3954 15.842 39.134 15.478C38.8727 15.1047 38.6814 14.6753 38.56 14.19C38.448 13.6953 38.392 13.1773 38.392 12.636V12.202H41.738V13.168H39.694C39.694 13.5227 39.7454 13.854 39.848 14.162C39.9507 14.4607 40.0907 14.7173 40.268 14.932C40.4454 15.1467 40.66 15.3147 40.912 15.436C41.164 15.5573 41.4394 15.618 41.738 15.618C42.382 15.618 42.8907 15.3613 43.264 14.848C43.6374 14.3253 43.824 13.588 43.824 12.636C43.824 11.6653 43.6467 10.928 43.292 10.424C42.9467 9.91067 42.424 9.654 41.724 9.654C41.192 9.654 40.744 9.78933 40.38 10.06C40.0254 10.3213 39.8107 10.6807 39.736 11.138H38.406ZM47.3613 14.008C47.3613 14.288 47.4033 14.526 47.4873 14.722C47.5807 14.918 47.702 15.0813 47.8513 15.212C48.01 15.3427 48.192 15.4407 48.3973 15.506C48.6027 15.562 48.822 15.59 49.0553 15.59C49.2233 15.59 49.4007 15.5713 49.5873 15.534C49.774 15.4873 49.942 15.4173 50.0913 15.324C50.25 15.2213 50.376 15.0953 50.4693 14.946C50.572 14.7873 50.6233 14.5913 50.6233 14.358C50.6233 14.1527 50.5767 13.9753 50.4833 13.826C50.3993 13.6767 50.278 13.5507 50.1193 13.448C49.9607 13.3453 49.774 13.2613 49.5593 13.196C49.3447 13.1213 49.116 13.056 48.8733 13C48.5747 12.9253 48.2713 12.832 47.9633 12.72C47.6647 12.608 47.394 12.468 47.1513 12.3C46.9087 12.132 46.708 11.922 46.5493 11.67C46.4 11.4087 46.3253 11.1007 46.3253 10.746C46.3253 10.3633 46.4 10.0367 46.5493 9.766C46.6987 9.49533 46.8947 9.276 47.1373 9.108C47.38 8.93067 47.6507 8.8 47.9493 8.716C48.2573 8.632 48.5653 8.59 48.8733 8.59C49.2467 8.59 49.6013 8.63667 49.9373 8.73C50.2827 8.814 50.5813 8.95867 50.8333 9.164C51.0947 9.36 51.3 9.61667 51.4493 9.934C51.5987 10.242 51.6733 10.62 51.6733 11.068H50.3993C50.3993 10.6293 50.2687 10.2793 50.0073 10.018C49.746 9.74733 49.4007 9.612 48.9713 9.612C48.5887 9.612 48.2573 9.70533 47.9773 9.892C47.7067 10.0693 47.5713 10.3493 47.5713 10.732C47.5713 10.9187 47.618 11.0773 47.7113 11.208C47.8047 11.3387 47.9307 11.4507 48.0893 11.544C48.248 11.6373 48.43 11.7167 48.6353 11.782C48.8407 11.8473 49.06 11.9033 49.2933 11.95C49.704 12.0527 50.068 12.1647 50.3853 12.286C50.712 12.398 50.9827 12.538 51.1973 12.706C51.4213 12.874 51.5893 13.0793 51.7013 13.322C51.8133 13.5553 51.8693 13.8447 51.8693 14.19C51.8693 14.666 51.7853 15.0627 51.6173 15.38C51.4493 15.6973 51.2253 15.9493 50.9453 16.136C50.6747 16.3227 50.3667 16.4533 50.0213 16.528C49.676 16.612 49.326 16.654 48.9713 16.654C48.5887 16.654 48.22 16.6027 47.8653 16.5C47.5107 16.4067 47.198 16.2527 46.9273 16.038C46.666 15.8233 46.456 15.548 46.2973 15.212C46.148 14.876 46.0733 14.4747 46.0733 14.008H47.3613ZM46.7646 6.462H50.3626V5.272H51.5666V7.428H46.2746L46.7646 6.462ZM60.1551 7.26L56.4171 16.696H55.4091L59.1051 7.26H60.1551ZM64.998 14.008C64.998 14.288 65.04 14.526 65.124 14.722C65.2174 14.918 65.3387 15.0813 65.488 15.212C65.6467 15.3427 65.8287 15.4407 66.034 15.506C66.2394 15.562 66.4587 15.59 66.692 15.59C66.86 15.59 67.0374 15.5713 67.224 15.534C67.4107 15.4873 67.5787 15.4173 67.728 15.324C67.8867 15.2213 68.0127 15.0953 68.106 14.946C68.2087 14.7873 68.26 14.5913 68.26 14.358C68.26 14.1527 68.2134 13.9753 68.12 13.826C68.036 13.6767 67.9147 13.5507 67.756 13.448C67.5974 13.3453 67.4107 13.2613 67.196 13.196C66.9814 13.1213 66.7527 13.056 66.51 13C66.2114 12.9253 65.908 12.832 65.6 12.72C65.3014 12.608 65.0307 12.468 64.788 12.3C64.5454 12.132 64.3447 11.922 64.186 11.67C64.0367 11.4087 63.962 11.1007 63.962 10.746C63.962 10.3633 64.0367 10.0367 64.186 9.766C64.3354 9.49533 64.5314 9.276 64.774 9.108C65.0167 8.93067 65.2874 8.8 65.586 8.716C65.894 8.632 66.202 8.59 66.51 8.59C66.8834 8.59 67.238 8.63667 67.574 8.73C67.9194 8.814 68.218 8.95867 68.47 9.164C68.7314 9.36 68.9367 9.61667 69.086 9.934C69.2354 10.242 69.31 10.62 69.31 11.068H68.036C68.036 10.6293 67.9054 10.2793 67.644 10.018C67.3827 9.74733 67.0374 9.612 66.608 9.612C66.2254 9.612 65.894 9.70533 65.614 9.892C65.3434 10.0693 65.208 10.3493 65.208 10.732C65.208 10.9187 65.2547 11.0773 65.348 11.208C65.4414 11.3387 65.5674 11.4507 65.726 11.544C65.8847 11.6373 66.0667 11.7167 66.272 11.782C66.4774 11.8473 66.6967 11.9033 66.93 11.95C67.3407 12.0527 67.7047 12.1647 68.022 12.286C68.3487 12.398 68.6194 12.538 68.834 12.706C69.058 12.874 69.226 13.0793 69.338 13.322C69.45 13.5553 69.506 13.8447 69.506 14.19C69.506 14.666 69.422 15.0627 69.254 15.38C69.086 15.6973 68.862 15.9493 68.582 16.136C68.3114 16.3227 68.0034 16.4533 67.658 16.528C67.3127 16.612 66.9627 16.654 66.608 16.654C66.2254 16.654 65.8567 16.6027 65.502 16.5C65.1474 16.4067 64.8347 16.2527 64.564 16.038C64.3027 15.8233 64.0927 15.548 63.934 15.212C63.7847 14.876 63.71 14.4747 63.71 14.008H64.998ZM65.2973 7.428V5.79H66.5153V6.462H70.2533V7.428H65.2973ZM70.8553 13.364V8.73H72.1013V13.518C72.1013 13.7607 72.134 14.008 72.1993 14.26C72.2646 14.5027 72.372 14.722 72.5213 14.918C72.6706 15.114 72.8713 15.2773 73.1233 15.408C73.3753 15.5293 73.6926 15.59 74.0753 15.59C74.4486 15.59 74.7613 15.5293 75.0133 15.408C75.2653 15.2773 75.466 15.114 75.6153 14.918C75.7646 14.722 75.8673 14.5027 75.9233 14.26C75.9886 14.008 76.0213 13.7607 76.0213 13.518V8.73H77.2953V13.364C77.2953 13.7933 77.2486 14.204 77.1553 14.596C77.062 14.988 76.894 15.338 76.6513 15.646C76.4086 15.954 76.0773 16.2013 75.6573 16.388C75.2466 16.5747 74.7193 16.668 74.0753 16.668C73.422 16.668 72.8853 16.5747 72.4653 16.388C72.0546 16.2013 71.728 15.954 71.4853 15.646C71.2426 15.338 71.0746 14.988 70.9813 14.596C70.8973 14.204 70.8553 13.7933 70.8553 13.364ZM80.1117 8.73V10.298H80.1257C80.3777 9.80333 80.723 9.388 81.1617 9.052C81.6004 8.716 82.1044 8.548 82.6737 8.548C83.1777 8.548 83.5977 8.618 83.9337 8.758C84.279 8.898 84.559 9.094 84.7737 9.346C84.9884 9.598 85.1377 9.90133 85.2217 10.256C85.315 10.6013 85.3617 10.9793 85.3617 11.39V16.5H84.0877V11.264C84.0877 10.7693 83.943 10.382 83.6537 10.102C83.3737 9.822 82.991 9.682 82.5057 9.682C82.1324 9.682 81.801 9.78 81.5117 9.976C81.2224 10.1627 80.9797 10.4053 80.7837 10.704C80.5877 11.0027 80.4337 11.3387 80.3217 11.712C80.219 12.076 80.1677 12.44 80.1677 12.804V16.5H78.9217V8.73H80.1117ZM79.4001 6.462H84.1321V5.272H85.3361V7.428H78.8961L79.4001 6.462ZM84.1321 2.36H85.3361V4.404H84.1321V2.36ZM87.9121 14.008C87.9121 14.288 87.9541 14.526 88.0381 14.722C88.1314 14.918 88.2528 15.0813 88.4021 15.212C88.5608 15.3427 88.7428 15.4407 88.9481 15.506C89.1534 15.562 89.3728 15.59 89.6061 15.59C89.7741 15.59 89.9514 15.5713 90.1381 15.534C90.3248 15.4873 90.4928 15.4173 90.6421 15.324C90.8008 15.2213 90.9268 15.0953 91.0201 14.946C91.1228 14.7873 91.1741 14.5913 91.1741 14.358C91.1741 14.1527 91.1274 13.9753 91.0341 13.826C90.9501 13.6767 90.8288 13.5507 90.6701 13.448C90.5114 13.3453 90.3248 13.2613 90.1101 13.196C89.8954 13.1213 89.6668 13.056 89.4241 13C89.1254 12.9253 88.8221 12.832 88.5141 12.72C88.2154 12.608 87.9448 12.468 87.7021 12.3C87.4594 12.132 87.2588 11.922 87.1001 11.67C86.9508 11.4087 86.8761 11.1007 86.8761 10.746C86.8761 10.3633 86.9508 10.0367 87.1001 9.766C87.2494 9.49533 87.4454 9.276 87.6881 9.108C87.9308 8.93067 88.2014 8.8 88.5001 8.716C88.8081 8.632 89.1161 8.59 89.4241 8.59C89.7974 8.59 90.1521 8.63667 90.4881 8.73C90.8334 8.814 91.1321 8.95867 91.3841 9.164C91.6454 9.36 91.8508 9.61667 92.0001 9.934C92.1494 10.242 92.2241 10.62 92.2241 11.068H90.9501C90.9501 10.6293 90.8194 10.2793 90.5581 10.018C90.2968 9.74733 89.9514 9.612 89.5221 9.612C89.1394 9.612 88.8081 9.70533 88.5281 9.892C88.2574 10.0693 88.1221 10.3493 88.1221 10.732C88.1221 10.9187 88.1688 11.0773 88.2621 11.208C88.3554 11.3387 88.4814 11.4507 88.6401 11.544C88.7988 11.6373 88.9808 11.7167 89.1861 11.782C89.3914 11.8473 89.6108 11.9033 89.8441 11.95C90.2548 12.0527 90.6188 12.1647 90.9361 12.286C91.2628 12.398 91.5334 12.538 91.7481 12.706C91.9721 12.874 92.1401 13.0793 92.2521 13.322C92.3641 13.5553 92.4201 13.8447 92.4201 14.19C92.4201 14.666 92.3361 15.0627 92.1681 15.38C92.0001 15.6973 91.7761 15.9493 91.4961 16.136C91.2254 16.3227 90.9174 16.4533 90.5721 16.528C90.2268 16.612 89.8768 16.654 89.5221 16.654C89.1394 16.654 88.7708 16.6027 88.4161 16.5C88.0614 16.4067 87.7488 16.2527 87.4781 16.038C87.2168 15.8233 87.0068 15.548 86.8481 15.212C86.6988 14.876 86.6241 14.4747 86.6241 14.008H87.9121ZM89.6814 5.328V6.476C90.2414 6.476 90.68 6.36867 90.9974 6.154C91.3054 5.93 91.4594 5.65467 91.4594 5.328H92.6074C92.6074 5.59867 92.5467 5.86 92.4254 6.112C92.304 6.35467 92.122 6.574 91.8794 6.77C91.6367 6.966 91.3287 7.12 90.9554 7.232C90.582 7.344 90.1434 7.4 89.6394 7.4H88.6174V6.266H87.9594V5.328H89.6814ZM93.2514 10.984C93.2514 10.592 93.326 10.2467 93.4754 9.948C93.634 9.64933 93.8394 9.402 94.0914 9.206C94.3434 9.00067 94.6327 8.84667 94.9594 8.744C95.2954 8.64133 95.636 8.59 95.9814 8.59C96.364 8.59 96.714 8.64133 97.0314 8.744C97.358 8.84667 97.638 9.00533 97.8714 9.22C98.114 9.42533 98.3007 9.68667 98.4314 10.004C98.5714 10.3213 98.6414 10.6993 98.6414 11.138V16.5H97.3814V11.418C97.3814 10.7927 97.26 10.3447 97.0174 10.074C96.784 9.794 96.4387 9.654 95.9814 9.654C95.5707 9.654 95.2394 9.766 94.9874 9.99C94.7447 10.2047 94.6094 10.536 94.5814 10.984H93.2514ZM100.264 13.84V8.73H101.51V13.98C101.51 14.456 101.654 14.8387 101.944 15.128C102.233 15.4173 102.625 15.562 103.12 15.562C103.512 15.562 103.848 15.5013 104.128 15.38C104.417 15.2493 104.66 15.0767 104.856 14.862C105.052 14.638 105.196 14.3813 105.29 14.092C105.383 13.7933 105.43 13.4667 105.43 13.112V8.73H106.704V16.5H105.5L105.472 15.254C104.949 16.2153 104.1 16.696 102.924 16.696C102.41 16.696 101.981 16.626 101.636 16.486C101.3 16.3367 101.029 16.1407 100.824 15.898C100.618 15.646 100.474 15.3473 100.39 15.002C100.306 14.6473 100.264 14.26 100.264 13.84Z" fill="#0AB356"/>
</svg>
