<svg width="138" height="20" viewBox="0 0 138 20" fill="none" xmlns="http://www.w3.org/2000/svg">
<path d="M136.821 0.5H4C2.067 0.5 0.5 2.067 0.5 4V16C0.5 17.933 2.067 19.5 4 19.5H136.821L127.972 10.3476C127.784 10.1537 127.784 9.84626 127.972 9.65245L136.821 0.5Z" fill="#FF672B" stroke="#FF672B" stroke-linecap="round" stroke-linejoin="round"/>
<path d="M12.644 6.236C13.068 6.236 13.444 6.292 13.772 6.404C14.1 6.508 14.376 6.66 14.6 6.86C14.824 7.06 14.996 7.3 15.116 7.58C15.236 7.852 15.296 8.16 15.296 8.504C15.296 8.704 15.268 8.904 15.212 9.104C15.156 9.296 15.068 9.48 14.948 9.656C14.828 9.832 14.672 9.984 14.48 10.112C14.296 10.232 14.068 10.316 13.796 10.364C14.076 10.468 14.316 10.636 14.516 10.868C14.724 11.1 14.872 11.384 14.96 11.72L15.308 12.98C15.372 13.22 15.448 13.424 15.536 13.592C15.624 13.76 15.704 13.896 15.776 14H13.976C13.912 13.904 13.84 13.776 13.76 13.616C13.688 13.448 13.62 13.236 13.556 12.98L13.256 11.864C13.184 11.608 13.052 11.384 12.86 11.192C12.668 11 12.38 10.904 11.996 10.904H10.532V14H8.792V6.236H12.644ZM10.532 9.56H12.2C12.376 9.56 12.548 9.544 12.716 9.512C12.884 9.48 13.032 9.424 13.16 9.344C13.288 9.264 13.392 9.16 13.472 9.032C13.552 8.896 13.592 8.736 13.592 8.552C13.592 8.296 13.508 8.08 13.34 7.904C13.18 7.728 12.928 7.64 12.584 7.64H10.532V9.56ZM16.737 6.236H22.605V7.64H18.441V9.296H22.101V10.664H18.441V12.62H22.617V14H16.737V6.236ZM23.1655 6.236H25.0015L26.7295 11.588L28.4455 6.236H30.2695L27.5335 14H25.8655L23.1655 6.236ZM32.8925 6.236V14H31.2125V6.236H32.8925ZM34.573 6.236H40.441V7.64H36.277V9.296H39.937V10.664H36.277V12.62H40.453V14H34.573V6.236ZM42.8014 6.236L44.0614 11.6H44.0734L45.5014 6.236H47.0254L48.4414 11.6H48.4654L49.7134 6.236H51.4654L49.4014 14H47.6374L46.2574 8.756L44.8774 14H43.1134L41.0614 6.236H42.8014ZM56.4359 10.124C56.4359 10.444 56.4759 10.756 56.5559 11.06C56.6439 11.364 56.7759 11.64 56.9519 11.888C57.1279 12.128 57.3559 12.324 57.6359 12.476C57.9159 12.62 58.2519 12.692 58.6439 12.692C59.0439 12.692 59.3839 12.62 59.6639 12.476C59.9519 12.324 60.1839 12.128 60.3599 11.888C60.5439 11.64 60.6759 11.364 60.7559 11.06C60.8439 10.756 60.8879 10.444 60.8879 10.124C60.8879 9.804 60.8439 9.488 60.7559 9.176C60.6759 8.864 60.5439 8.588 60.3599 8.348C60.1839 8.108 59.9519 7.912 59.6639 7.76C59.3839 7.608 59.0439 7.532 58.6439 7.532C58.2519 7.532 57.9159 7.608 57.6359 7.76C57.3559 7.912 57.1279 8.108 56.9519 8.348C56.7759 8.588 56.6439 8.864 56.5559 9.176C56.4759 9.488 56.4359 9.804 56.4359 10.124ZM54.7199 10.124C54.7199 9.596 54.7999 9.088 54.9599 8.6C55.1279 8.104 55.3759 7.672 55.7039 7.304C56.0319 6.928 56.4399 6.628 56.9279 6.404C57.4159 6.18 57.9879 6.068 58.6439 6.068C59.3079 6.068 59.8879 6.18 60.3839 6.404C60.8799 6.628 61.2919 6.928 61.6199 7.304C61.9479 7.672 62.1919 8.104 62.3519 8.6C62.5199 9.088 62.6039 9.596 62.6039 10.124C62.6039 10.652 62.5199 11.16 62.3519 11.648C62.1919 12.128 61.9479 12.556 61.6199 12.932C61.2919 13.3 60.8799 13.596 60.3839 13.82C59.8879 14.036 59.3079 14.144 58.6439 14.144C57.9879 14.144 57.4159 14.036 56.9279 13.82C56.4399 13.596 56.0319 13.3 55.7039 12.932C55.3759 12.556 55.1279 12.128 54.9599 11.648C54.7999 11.16 54.7199 10.652 54.7199 10.124ZM63.7527 6.236H69.3567V7.64H65.4567V9.296H68.8167V10.664H65.4567V14H63.7527V6.236ZM78.6005 6.236V7.724H76.3805V14H74.6645V7.724H72.4685V6.236H78.6005ZM79.5378 14V6.236H81.2418V9.296H84.4938V6.236H86.1978V14H84.4938V10.664H81.2418V14H79.5378ZM87.7527 6.236H93.6207V7.64H89.4567V9.296H93.1167V10.664H89.4567V12.62H93.6327V14H87.7527V6.236ZM100.419 12.656C100.515 12.656 100.635 12.648 100.779 12.632C100.931 12.616 101.091 12.58 101.259 12.524C101.427 12.46 101.599 12.372 101.775 12.26C101.951 12.14 102.107 11.98 102.243 11.78C102.379 11.58 102.491 11.332 102.579 11.036C102.667 10.74 102.711 10.376 102.711 9.944C102.711 9.6 102.667 9.284 102.579 8.996C102.491 8.708 102.355 8.464 102.171 8.264C101.987 8.056 101.755 7.896 101.475 7.784C101.195 7.664 100.855 7.604 100.455 7.604H99.2067V12.656H100.419ZM100.347 6.236C100.979 6.236 101.547 6.316 102.051 6.476C102.555 6.628 102.979 6.86 103.323 7.172C103.667 7.476 103.931 7.86 104.115 8.324C104.299 8.788 104.391 9.328 104.391 9.944C104.391 11.24 104.067 12.24 103.419 12.944C102.771 13.648 101.747 14 100.347 14H97.5027V6.236H100.347ZM107.564 6.236H109.352L112.376 14H110.564L109.916 12.14H107.012L106.352 14H104.552L107.564 6.236ZM109.424 10.88L108.452 8.144L107.48 10.88H109.424ZM111.455 6.236H113.519L115.415 9.296L117.263 6.236H119.255L116.243 10.856V14H114.503V10.856L111.455 6.236Z" fill="white"/>
</svg>
