<svg width="18" height="18" viewBox="0 0 18 18" fill="none" xmlns="http://www.w3.org/2000/svg">
<rect width="18" height="18" rx="2" fill="#FF672B"/>
<path d="M14.9963 14.541L14.3799 6.07428C14.3282 5.36341 13.7358 4.81225 13.022 4.81225H12.0534C11.9982 4.36315 11.8612 3.81319 11.5523 3.31366C11.0873 2.56077 10.2798 2 9 2C7.72023 2 6.91391 2.56077 6.44766 3.31366C6.13884 3.81319 6.00185 4.36195 5.94657 4.81225H4.97803C4.26424 4.81225 3.67182 5.36341 3.62015 6.07428L3.0037 14.541C2.94602 15.3288 3.57088 16 4.36158 16H13.6384C14.4291 16 15.054 15.33 14.9963 14.541ZM7.27561 3.96569C7.53637 3.54421 8.02064 3.13715 9 3.13715C9.97936 3.13715 10.4636 3.54421 10.7244 3.96569C10.8902 4.23347 10.9827 4.53607 11.0308 4.81225H6.96919C7.01725 4.53727 7.10978 4.23347 7.27561 3.96569ZM8.89906 10.1618C8.89906 10.7153 8.48328 11.1716 7.94734 11.2389V11.2485V11.425V13.5576C7.94734 13.7821 7.76469 13.9647 7.53998 13.9647C7.31527 13.9647 7.13261 13.7821 7.13261 13.5576V11.425V11.2485V11.2389C6.59667 11.1716 6.1809 10.7153 6.1809 10.1618V8.32816C6.1809 8.14083 6.33351 7.98834 6.52097 7.98834C6.70843 7.98834 6.86104 8.14083 6.86104 8.32816V10.1618H7.2684V8.25971C7.2684 8.10961 7.38977 7.98834 7.53998 7.98834C7.69019 7.98834 7.81155 8.10961 7.81155 8.25971V10.1606H8.21892V8.32816C8.21892 8.14083 8.37153 7.98834 8.55899 7.98834C8.74645 7.98834 8.89906 8.14083 8.89906 8.32816V10.1618ZM11.6172 13.5564C11.6172 13.7809 11.4346 13.9635 11.2099 13.9635C10.9851 13.9635 10.8025 13.7809 10.8025 13.5564V11.7912H9.98657V9.61781C9.98657 8.71721 10.7172 7.98834 11.6172 7.98834V13.5564Z" fill="white"/>
</svg>
