<svg width="80" height="30" fill="none" xmlns="http://www.w3.org/2000/svg"><path d="M4.654 19.834c-.187.445-.351.703-.797.703-.445 0-.655-.234-.82-.68L.063 11.613c-.187-.54.07-.937.469-1.101.398-.164.914-.094 1.101.445l2.155 6.278 2.437-6.161c.187-.445.468-.656.796-.656s.61.21.797.656l2.436 6.161 2.155-6.278c.188-.562.726-.61 1.101-.445.422.187.68.585.469 1.1l-2.976 8.247c-.164.445-.374.68-.82.68-.327 0-.609-.235-.796-.704l-2.413-6.137-2.319 6.137zM14.961 15.454c0-2.788 1.851-5.248 5.037-5.248s5.037 2.46 5.037 5.248c0 2.81-1.85 5.247-5.037 5.247-3.186.023-5.037-2.413-5.037-5.247zm8.364 0c0-2.015-1.242-3.585-3.303-3.585-2.085 0-3.304 1.57-3.304 3.585 0 2.014 1.242 3.607 3.303 3.607 2.062.024 3.304-1.57 3.304-3.607zM31.5 10.206h-.21c-2.437 0-4.358 1.85-4.358 4.193v5.248c0 .586.446.867.867.867.445 0 .843-.305.843-.867v-5.318c0-1.335 1.078-2.46 2.648-2.46h.21c1.57 0 2.648 1.125 2.648 2.46v5.318c0 .586.421.867.843.867.445 0 .867-.305.867-.867v-5.248c0-2.342-1.921-4.193-4.357-4.193zM47.407 15.032v4.427c0 2.788-1.78 5.224-4.99 5.224-1.663 0-2.951-.445-3.888-1.499-.375-.445-.235-.913.093-1.195.328-.304.82-.328 1.218.07.492.493 1.242.985 2.577.985 2.038 0 3.257-1.523 3.257-3.49v-.071c-.82.773-1.898 1.241-3.257 1.241-3.092 0-4.872-2.436-4.872-5.247 0-2.788 1.78-5.248 4.872-5.248 3.233-.023 4.99 2.507 4.99 4.803zm-1.71.421c0-2.014-1.007-3.584-3.092-3.584s-3.303 1.57-3.303 3.585c0 2.014 1.241 3.607 3.303 3.607 2.061.024 3.092-1.57 3.092-3.607z" fill="#0070A8"/><path d="M75.05 4.654C69.217-1.46 59.52-1.554 53.568 4.396c-4.825 4.826-5.669 12.088-2.553 17.78.07.118.093.212.14.329.07.234.07.468.047.703l-.468 3.537c0 .937.773 1.71 1.71 1.71l3.607-.468c.328-.047.656.023.961.187 5.646 3.069 12.814 2.273 17.64-2.413 5.857-5.716 6.044-15.204.398-21.107z" fill="#FF672B"/><path d="M66.992 10.44c-1.172 0-2.062.235-2.765.727-.679.492-1.03 1.265-1.054 1.312-.258.538-.093 1.03.398 1.264.141.07.282.118.422.118.351 0 .656-.211.843-.61 0 0 .164-.35.422-.608.398-.399.914-.563 1.827-.563 1.195 0 2.015.492 2.015 1.242v.586c0 .328-.21.562-.586.585l-2.787.258c-.68.07-2.929.445-2.929 2.811 0 1.757 1.382 2.999 3.374 2.999 1.288 0 2.342-.352 2.952-.984.07.492.398.773.89.796h.023c.539 0 .914-.375.937-1.007v-5.388c0-2.32-1.382-3.538-3.982-3.538zm2.132 6.068c0 1.242-1.242 2.32-2.671 2.32-1.312 0-1.804-.657-1.804-1.266 0-.492.351-1.124 1.382-1.242l3.093-.374v.562zM73.55 10.44c-.538 0-.866.352-.89.914v8.293c0 .562.329.914.844.914h.023c.516 0 .844-.352.867-.914v-8.293c-.023-.562-.328-.914-.843-.914zM73.48 9.386h.024c.61 0 1.007-.422 1.03-1.124 0-.656-.374-1.078-.983-1.101h-.023c-.61 0-1.008.421-1.031 1.124 0 .68.375 1.078.984 1.101zM57.105 10.206s-.023 0 0 0h-.21c-2.437 0-4.358 1.85-4.358 4.193v5.248c0 .586.446.867.867.867.445 0 .843-.305.843-.867v-5.318c0-1.335 1.078-2.46 2.648-2.46h.21c1.57 0 2.648 1.125 2.648 2.46v5.318c0 .586.421.867.843.867.445 0 .867-.305.867-.867v-5.248c0-2.342-1.921-4.193-4.358-4.193z" fill="#fff"/></svg>