<svg width="980" height="154" viewBox="0 0 980 154" fill="none" xmlns="http://www.w3.org/2000/svg">
<g clip-path="url(#clip0)">
<path d="M4.09 0L976.09 0.64C978.3 0.64 980.09 2.43 980.09 4.64L980 136.64C980 138.85 978.21 140.64 976 140.64L4 140C1.79 140 0 138.21 0 136L0.09 4C0.09 1.79 1.88 0 4.09 0Z" fill="url(#paint0_linear)"/>
<path d="M574.97 96.61C576.11 96.61 577.23 96.71 578.31 96.89C578.31 96.8 578.3 96.71 578.3 96.61C578.3 90.75 583.74 86 590.45 86C597.16 86 602.6 90.75 602.6 96.61V128H574.96C565.04 128 557 120.97 557 112.31C557 103.63 565.05 96.61 574.97 96.61Z" fill="#0C83BE"/>
<path d="M658 128H596V77.45C596 71.13 601.13 66 607.45 66H646.55C652.87 66 658 71.13 658 77.45V128Z" fill="#0070A8"/>
<path d="M691.989 83.4156C693.644 83.4156 695.256 83.5567 696.825 83.8172C696.814 83.687 696.814 83.5567 696.814 83.4156C696.814 74.9044 704.691 68 714.407 68C724.123 68 732 74.9044 732 83.4156V129H692C677.642 129 666 118.795 666 106.213C665.989 93.6094 677.631 83.4156 691.989 83.4156Z" fill="#0070A8"/>
<path d="M193.04 0.320007H133.04V140.32H193.04V0.320007Z" fill="#0070A8"/>
<path d="M770.7 140.32H711.39C710.65 140.32 710.05 139.72 710.05 138.98V43.67C710.05 42.93 710.65 42.33 711.39 42.33H770.7C771.44 42.33 772.04 42.93 772.04 43.67V138.98C772.04 139.72 771.44 140.32 770.7 140.32Z" fill="#0C83BE"/>
<path d="M84.55 139.32H40.53C34.74 139.32 30.04 134.62 30.04 128.83V22.81C30.04 17.02 34.74 12.32 40.53 12.32H84.55C90.34 12.32 95.04 17.02 95.04 22.81V128.83C95.04 134.63 90.35 139.32 84.55 139.32Z" fill="#0070A8"/>
<path d="M12 50H0V128H12V50Z" fill="#0070A8"/>
<path d="M240.1 139.32H212.99C205.84 139.32 200.04 133.52 200.04 126.37V38.27C200.04 31.12 205.84 25.32 212.99 25.32H240.1C247.25 25.32 253.05 31.12 253.05 38.27V126.38C253.04 133.53 247.25 139.32 240.1 139.32Z" fill="#0070A8"/>
<path d="M833.68 139.32H802.41C794.48 139.32 788.04 132.89 788.04 124.95V29.69C788.04 21.76 794.47 15.32 802.41 15.32H833.68C841.61 15.32 848.05 21.75 848.05 29.69V124.96C848.04 132.89 841.61 139.32 833.68 139.32Z" fill="#0070A8"/>
<path d="M224.04 66.32H162.04V128.32H224.04V66.32Z" fill="#2196CE"/>
<path d="M279.71 92.45C278.61 92.45 277.53 92.56 276.49 92.76C276.49 92.66 276.5 92.55 276.5 92.45C276.5 85.75 271.25 80.32 264.78 80.32C258.31 80.32 253.06 85.75 253.06 92.45V128.32H279.72C289.3 128.32 297.05 120.29 297.05 110.39C297.04 100.48 289.28 92.45 279.71 92.45Z" fill="#0070A8"/>
<path d="M958.6 107.4C957.96 107.4 957.33 107.46 956.72 107.58C956.72 107.52 956.72 107.46 956.72 107.4C956.72 103.49 953.66 100.32 949.88 100.32C946.1 100.32 943.04 103.49 943.04 107.4V128.32H958.59C964.18 128.32 968.7 123.64 968.7 117.86C968.71 112.08 964.18 107.4 958.6 107.4Z" fill="#0070A8"/>
<path d="M327.38 134.32H275.71C272.03 134.32 269.04 131.33 269.04 127.65V111.98C269.04 108.3 272.03 105.31 275.71 105.31H327.38C331.06 105.31 334.05 108.3 334.05 111.98V127.65C334.04 131.34 331.06 134.32 327.38 134.32Z" fill="#0C83BE"/>
<path d="M721.04 92.32H664.04V128.32H721.04V92.32Z" fill="#E2F4FF"/>
<path d="M703.84 69.94C703.84 79.73 691.84 87.94 691.84 87.94C691.84 87.94 679.84 80.75 679.84 69.94C679.84 63.2 685.21 57.94 691.84 57.94C698.47 57.94 703.84 63.2 703.84 69.94Z" fill="#FF672B"/>
<path d="M698.84 75.27L698.12 65.59C698.06 64.78 697.37 64.15 696.54 64.15H695.41C695.35 63.64 695.19 63.01 694.83 62.44C694.29 61.58 693.35 60.94 691.85 60.94C690.36 60.94 689.42 61.58 688.87 62.44C688.51 63.01 688.35 63.64 688.29 64.15H687.16C686.33 64.15 685.64 64.78 685.58 65.59L684.86 75.27C684.79 76.17 685.52 76.94 686.44 76.94H697.26C698.18 76.94 698.91 76.17 698.84 75.27ZM689.83 63.18C690.13 62.7 690.7 62.23 691.84 62.23C692.98 62.23 693.55 62.7 693.85 63.18C694.04 63.49 694.15 63.83 694.21 64.15H689.47C689.53 63.84 689.64 63.49 689.83 63.18ZM691.73 70.27C691.73 70.9 691.25 71.42 690.62 71.5V71.51V71.71V74.15C690.62 74.41 690.41 74.62 690.14 74.62C689.88 74.62 689.66 74.41 689.66 74.15V71.71V71.51V71.5C689.04 71.42 688.55 70.9 688.55 70.27V68.17C688.55 67.96 688.73 67.78 688.95 67.78C689.17 67.78 689.35 67.95 689.35 68.17V70.27H689.83V68.1C689.83 67.93 689.97 67.79 690.15 67.79C690.32 67.79 690.47 67.93 690.47 68.1V70.27H690.95V68.18C690.95 67.97 691.13 67.79 691.35 67.79C691.57 67.79 691.75 67.96 691.75 68.18V70.27H691.73ZM694.9 74.15C694.9 74.41 694.69 74.62 694.42 74.62C694.16 74.62 693.95 74.41 693.95 74.15V72.13H693V69.65C693 68.62 693.85 67.79 694.9 67.79V74.15Z" fill="white"/>
<path d="M923.95 21.49C923.95 33.36 909.4 43.32 909.4 43.32C909.4 43.32 894.85 34.6 894.85 21.49C894.85 13.32 901.37 6.94 909.4 6.94C917.43 6.94 923.95 13.32 923.95 21.49Z" fill="#FF672B"/>
<path d="M917.88 27.96L917.01 16.22C916.94 15.23 916.1 14.47 915.09 14.47H913.72C913.64 13.85 913.45 13.09 913.01 12.39C912.35 11.35 911.21 10.57 909.4 10.57C907.59 10.57 906.45 11.35 905.79 12.39C905.35 13.08 905.16 13.84 905.08 14.47H903.71C902.7 14.47 901.86 15.23 901.79 16.22L900.92 27.96C900.84 29.05 901.72 29.98 902.84 29.98H915.96C917.08 29.98 917.96 29.05 917.88 27.96ZM906.96 13.3C907.33 12.72 908.01 12.15 909.4 12.15C910.79 12.15 911.47 12.71 911.84 13.3C912.07 13.67 912.21 14.09 912.27 14.47H906.52C906.59 14.09 906.72 13.67 906.96 13.3ZM909.25 21.89C909.25 22.66 908.66 23.29 907.9 23.38V23.39V23.63V26.59C907.9 26.9 907.64 27.15 907.32 27.15C907 27.15 906.74 26.9 906.74 26.59V23.63V23.4V23.39C905.98 23.3 905.39 22.66 905.39 21.9V19.36C905.39 19.1 905.61 18.89 905.87 18.89C906.13 18.89 906.35 19.1 906.35 19.36V21.9H906.93V19.26C906.93 19.05 907.1 18.88 907.31 18.88C907.52 18.88 907.69 19.05 907.69 19.26V21.89H908.27V19.35C908.27 19.09 908.49 18.88 908.75 18.88C909.02 18.88 909.23 19.09 909.23 19.35V21.89H909.25ZM913.1 26.59C913.1 26.9 912.84 27.15 912.52 27.15C912.2 27.15 911.94 26.9 911.94 26.59V24.14H910.79V21.13C910.79 19.88 911.82 18.87 913.1 18.87V26.59Z" fill="white"/>
<path d="M207.87 36.56C207.87 50.57 190.69 62.32 190.69 62.32C190.69 62.32 173.51 52.03 173.51 36.56C173.51 26.91 181.2 19.38 190.69 19.38C200.18 19.38 207.87 26.91 207.87 36.56Z" fill="#FF672B"/>
<path d="M200.71 44.19L199.68 30.34C199.59 29.18 198.61 28.28 197.41 28.28H195.79C195.7 27.55 195.47 26.65 194.95 25.83C194.17 24.6 192.82 23.68 190.69 23.68C188.55 23.68 187.21 24.6 186.43 25.83C185.91 26.65 185.69 27.54 185.59 28.28H183.97C182.78 28.28 181.79 29.18 181.7 30.34L180.67 44.19C180.57 45.48 181.62 46.58 182.94 46.58H198.43C199.76 46.58 200.8 45.48 200.71 44.19ZM187.81 26.89C188.25 26.2 189.05 25.53 190.69 25.53C192.33 25.53 193.13 26.2 193.57 26.89C193.85 27.33 194 27.82 194.08 28.27H187.3C187.38 27.83 187.54 27.33 187.81 26.89ZM190.52 37.03C190.52 37.94 189.83 38.68 188.93 38.79V38.81V39.1V42.59C188.93 42.96 188.63 43.26 188.25 43.26C187.87 43.26 187.57 42.96 187.57 42.59V39.1V38.8V38.78C186.68 38.67 185.98 37.92 185.98 37.02V34.02C185.98 33.71 186.23 33.46 186.55 33.46C186.86 33.46 187.12 33.71 187.12 34.02V37.02H187.8V33.91C187.8 33.66 188 33.47 188.25 33.47C188.5 33.47 188.7 33.67 188.7 33.91V37.02H189.38V34.02C189.38 33.71 189.63 33.46 189.95 33.46C190.26 33.46 190.52 33.71 190.52 34.02V37.03ZM195.06 42.58C195.06 42.95 194.76 43.25 194.38 43.25C194.01 43.25 193.7 42.95 193.7 42.58V39.69H192.34V36.13C192.34 34.66 193.56 33.46 195.06 33.46V42.58Z" fill="white"/>
<path d="M721.04 96.32H686.04V128.32H721.04V96.32Z" fill="#7FD3FC"/>
<path d="M721.04 92.32H664.04V96.32H721.04V92.32Z" fill="#0070A8"/>
<path d="M686.04 92.32H664.04V96.32H686.04V92.32Z" fill="#2196CE"/>
<path d="M672.04 98.32H666.04V104.32H672.04V98.32Z" fill="#B3E5FF"/>
<path d="M680.04 98.32H674.04V104.32H680.04V98.32Z" fill="#7FD3FC"/>
<path d="M672.04 106.32H666.04V112.32H672.04V106.32Z" fill="#B3E5FF"/>
<path d="M672.04 114.32H666.04V120.32H672.04V114.32Z" fill="#B3E5FF"/>
<path d="M680.04 106.32H674.04V112.32H680.04V106.32Z" fill="#B3E5FF"/>
<path d="M796.65 101.32C795.76 101.32 795.04 100.6 795.04 99.71V26.93C795.04 26.04 795.76 25.32 796.65 25.32C797.54 25.32 798.26 26.04 798.26 26.93V99.72C798.26 100.6 797.54 101.32 796.65 101.32Z" fill="#0C83BE"/>
<path d="M803.44 101.32C802.55 101.32 801.83 100.6 801.83 99.71V26.93C801.83 26.04 802.55 25.32 803.44 25.32C804.33 25.32 805.05 26.04 805.05 26.93V99.72C805.04 100.6 804.32 101.32 803.44 101.32Z" fill="#0C83BE"/>
<path d="M810.44 101.32C809.55 101.32 808.83 100.6 808.83 99.71V26.93C808.83 26.04 809.55 25.32 810.44 25.32C811.33 25.32 812.05 26.04 812.05 26.93V99.72C812.04 100.6 811.32 101.32 810.44 101.32Z" fill="#0C83BE"/>
<path d="M807.91 139.32H762.17C759.34 139.32 757.04 137.02 757.04 134.19V71.45C757.04 68.62 759.34 66.32 762.17 66.32H807.91C810.74 66.32 813.04 68.62 813.04 71.45V134.19C813.04 137.02 810.75 139.32 807.91 139.32Z" fill="#7FD3FC"/>
<path d="M853.41 96.94C854.55 96.94 855.67 97.04 856.75 97.22C856.75 97.13 856.74 97.04 856.74 96.94C856.74 91.08 862.18 86.33 868.89 86.33C875.6 86.33 881.04 91.08 881.04 96.94V128.33H853.4C843.48 128.33 835.44 121.3 835.44 112.64C835.44 103.96 843.49 96.94 853.41 96.94Z" fill="#5CC1F1"/>
<path d="M321.41 96.94C322.55 96.94 323.67 97.04 324.75 97.22C324.75 97.13 324.74 97.04 324.74 96.94C324.74 91.08 330.18 86.33 336.89 86.33C343.6 86.33 349.04 91.08 349.04 96.94V128.33H321.4C311.48 128.33 303.44 121.3 303.44 112.64C303.44 103.96 311.49 96.94 321.41 96.94Z" fill="#5CC1F1"/>
<path d="M936.92 140.32H882.17C878.79 140.32 876.04 137.58 876.04 134.19V52.45C876.04 49.07 878.78 46.32 882.17 46.32H936.92C940.3 46.32 943.05 49.06 943.05 52.45V134.2C943.04 137.58 940.3 140.32 936.92 140.32Z" fill="#0C83BE"/>
<path d="M760.042 72.9857V79.6557H784.042V72.9857H760.042Z" fill="#67C5FF"/>
<path d="M760.042 81.9857V88.6557H784.042V81.9857H760.042Z" fill="#67C5FF"/>
<path d="M760.042 90.9857V97.6557H784.042V90.9857H760.042Z" fill="#67C5FF"/>
<path d="M760.042 100.986V107.656H784.042V100.986H760.042Z" fill="#67C5FF"/>
<path d="M760.049 113.989V128.319H784.049V113.989H760.049Z" fill="#67C5FF"/>
<path d="M810.9 66.32H790.47C790.24 66.32 790.04 66.51 790.04 66.75V127.9C790.04 128.13 790.23 128.33 790.47 128.33H815.62C815.85 128.33 816.05 128.14 816.05 127.9V71.47C816.04 68.63 813.74 66.32 810.9 66.32Z" fill="#4DBAEC"/>
<path opacity="0.52" d="M936.04 128.32H930.04V64.32C930.04 62.66 931.38 61.32 933.04 61.32C934.7 61.32 936.04 62.66 936.04 64.32V128.32Z" fill="#7FD3FC"/>
<path opacity="0.52" d="M927.04 128.32H921.04V64.32C921.04 62.66 922.38 61.32 924.04 61.32C925.7 61.32 927.04 62.66 927.04 64.32V128.32Z" fill="#7FD3FC"/>
<path opacity="0.52" d="M917.04 128.32H911.04V64.32C911.04 62.66 912.38 61.32 914.04 61.32C915.7 61.32 917.04 62.66 917.04 64.32V128.32Z" fill="#7FD3FC"/>
<path d="M943.04 52.32H876.04V50.56C876.04 48.22 877.94 46.32 880.28 46.32H938.79C941.13 46.32 943.03 48.22 943.03 50.56V52.32H943.04Z" fill="#0070A8"/>
<path d="M412.99 97.32H396.09C392.2 97.32 389.04 100.48 389.04 104.37V127.27C389.04 131.16 392.2 134.32 396.09 134.32H412.99C416.88 134.32 420.04 131.16 420.04 127.27V104.37C420.04 100.48 416.89 97.32 412.99 97.32Z" fill="#2196CE"/>
<path d="M224.04 122.82H269.04" stroke="#2196CE" stroke-miterlimit="10"/>
<path d="M227.04 122.82V128.32" stroke="#2196CE" stroke-miterlimit="10"/>
<path d="M230.08 122.82V128.32" stroke="#2196CE" stroke-miterlimit="10"/>
<path d="M236.16 122.82V128.32" stroke="#2196CE" stroke-miterlimit="10"/>
<path d="M233.12 122.82V128.32" stroke="#2196CE" stroke-miterlimit="10"/>
<path d="M239.2 122.82V128.32" stroke="#2196CE" stroke-miterlimit="10"/>
<path d="M245.27 122.82V128.32" stroke="#2196CE" stroke-miterlimit="10"/>
<path d="M242.24 122.82V128.32" stroke="#2196CE" stroke-miterlimit="10"/>
<path d="M248.31 122.82V128.32" stroke="#2196CE" stroke-miterlimit="10"/>
<path d="M254.39 122.82V128.32" stroke="#2196CE" stroke-miterlimit="10"/>
<path d="M251.35 122.82V128.32" stroke="#2196CE" stroke-miterlimit="10"/>
<path d="M257.43 122.82V128.32" stroke="#2196CE" stroke-miterlimit="10"/>
<path d="M263.51 122.82V128.32" stroke="#2196CE" stroke-miterlimit="10"/>
<path d="M266.54 122.82V128.32" stroke="#2196CE" stroke-miterlimit="10"/>
<path d="M260.47 122.82V128.32" stroke="#2196CE" stroke-miterlimit="10"/>
<path d="M268.85 121.32H226.74C226.63 121.32 226.55 121.23 226.55 121.13V120.84C226.55 117.52 229.24 114.83 232.56 114.83H268.85C268.96 114.83 269.04 114.92 269.04 115.02V121.13C269.04 121.23 268.96 121.32 268.85 121.32Z" fill="#2196CE"/>
<path d="M250.49 116.32H233.04V118.32H250.49V116.32Z" fill="#0070A8"/>
<path d="M269.04 116.32H251.59V118.32H269.04V116.32Z" fill="#0070A8"/>
<path d="M39.8898 99.83C38.9998 99.83 38.2798 99.11 38.2798 98.22V25.43C38.2798 24.54 38.9998 23.82 39.8898 23.82C40.7798 23.82 41.4998 24.54 41.4998 25.43V98.22C41.4998 99.11 40.7798 99.83 39.8898 99.83Z" fill="#0C83BE"/>
<path d="M46.8898 99.83C45.9998 99.83 45.2798 99.11 45.2798 98.22V25.43C45.2798 24.54 45.9998 23.82 46.8898 23.82C47.7798 23.82 48.4998 24.54 48.4998 25.43V98.22C48.4998 99.11 47.7798 99.83 46.8898 99.83Z" fill="#0C83BE"/>
<path d="M54.8898 99.83C53.9998 99.83 53.2798 99.11 53.2798 98.22V25.43C53.2798 24.54 53.9998 23.82 54.8898 23.82C55.7798 23.82 56.4998 24.54 56.4998 25.43V98.22C56.4998 99.11 55.7798 99.83 54.8898 99.83Z" fill="#0C83BE"/>
<path d="M44.98 76.01C46.88 76.01 48.74 76.17 50.55 76.47C50.54 76.31 50.53 76.17 50.53 76.01C50.53 66.24 59.59 58.32 70.78 58.32C81.97 58.32 91.03 66.24 91.03 76.01V128.32H44.98C28.45 128.32 15.04 116.61 15.04 102.17C15.04 87.72 28.45 76.01 44.98 76.01Z" fill="#0A83BE"/>
<path d="M137.95 139.32H88.1398C84.7698 139.32 82.0498 136.59 82.0498 133.23V52.41C82.0498 49.04 84.7798 46.32 88.1398 46.32H137.95C141.32 46.32 144.04 49.05 144.04 52.41V133.22C144.04 136.59 141.32 139.32 137.95 139.32Z" fill="#7FD3FC"/>
<path d="M88.33 139.32H106.75C110.22 139.32 113.04 136.5 113.04 133.03V46.32H88.33C84.86 46.32 82.04 49.14 82.04 52.61V133.03C82.04 136.51 84.86 139.32 88.33 139.32Z" fill="#4DBAEC"/>
<path d="M178.04 92.32H116.04V128.32H178.04V92.32Z" fill="#E2F4FF"/>
<path d="M178.04 96.32H137.04V128.32H178.04V96.32Z" fill="#7FD3FC"/>
<path d="M178.04 92.32H121.04V96.32H178.04V92.32Z" fill="#0070A8"/>
<path d="M137.04 92.32H116.04V96.32H137.04V92.32Z" fill="#2196CE"/>
<path d="M150.958 99.5336V106.204H174.958V99.5336H150.958Z" fill="#67C5FF"/>
<path d="M150.958 108.534V115.204H174.958V108.534H150.958Z" fill="#67C5FF"/>
<path d="M150.958 117.534V124.204H174.958V117.534H150.958Z" fill="#67C5FF"/>
<path d="M372.48 141H331.52C325.71 141 321 136.24 321 130.368V56.6319C321 50.7601 325.71 46 331.52 46H372.48C378.29 46 383 50.7601 383 56.6319V130.368C383 136.24 378.29 141 372.48 141Z" fill="#0070A8"/>
<path d="M128.59 53.32H119.32V62.59H128.59V53.32Z" fill="#B3E5FF"/>
<path d="M140.59 53.32H131.32V62.59H140.59V53.32Z" fill="#B3E5FF"/>
<path d="M128.59 65.32H119.32V74.59H128.59V65.32Z" fill="#B3E5FF"/>
<path d="M140.59 65.32H131.32V74.59H140.59V65.32Z" fill="#B3E5FF"/>
<path d="M128.59 78.05H119.32V87.32H128.59V78.05Z" fill="#B3E5FF"/>
<path d="M0.0400391 128.32H980.04V136.32C980.04 138.53 978.25 140.32 976.04 140.32H4.04004C1.83004 140.32 0.0400391 138.53 0.0400391 136.32V128.32Z" fill="#0070A8"/>
<path d="M203.04 118.32C207.458 118.32 211.04 114.738 211.04 110.32C211.04 105.902 207.458 102.32 203.04 102.32C198.622 102.32 195.04 105.902 195.04 110.32C195.04 114.738 198.622 118.32 203.04 118.32Z" fill="#0070A8"/>
<path d="M202.04 109.32C202.04 108.77 202.49 108.32 203.04 108.32C203.59 108.32 204.04 108.77 204.04 109.32V128.32H202.04V109.32Z" fill="#0070A8"/>
<path d="M189.04 118.32C193.458 118.32 197.04 114.738 197.04 110.32C197.04 105.902 193.458 102.32 189.04 102.32C184.622 102.32 181.04 105.902 181.04 110.32C181.04 114.738 184.622 118.32 189.04 118.32Z" fill="#0070A8"/>
<path d="M188.04 109.32C188.04 108.77 188.49 108.32 189.04 108.32C189.59 108.32 190.04 108.77 190.04 109.32V128.32H188.04V109.32Z" fill="#0070A8"/>
<path d="M113.04 118.32C117.458 118.32 121.04 114.738 121.04 110.32C121.04 105.902 117.458 102.32 113.04 102.32C108.622 102.32 105.04 105.902 105.04 110.32C105.04 114.738 108.622 118.32 113.04 118.32Z" fill="#0070A8"/>
<path d="M112.04 109.32C112.04 108.77 112.49 108.32 113.04 108.32C113.59 108.32 114.04 108.77 114.04 109.32V128.32H112.04V109.32Z" fill="#0070A8"/>
<path d="M746.58 121.4C749.64 121.4 752.12 118.92 752.12 115.86C752.12 112.8 749.64 110.32 746.58 110.32C743.52 110.32 741.04 112.8 741.04 115.86C741.04 118.92 743.52 121.4 746.58 121.4Z" fill="#DCDFE0"/>
<path d="M745.89 115.17C745.89 114.79 746.2 114.48 746.58 114.48C746.96 114.48 747.27 114.79 747.27 115.17V128.32H745.89V115.17Z" fill="#DCDFE0"/>
<path d="M763.04 118.32C767.458 118.32 771.04 114.738 771.04 110.32C771.04 105.902 767.458 102.32 763.04 102.32C758.622 102.32 755.04 105.902 755.04 110.32C755.04 114.738 758.622 118.32 763.04 118.32Z" fill="#0070A8"/>
<path d="M762.04 109.32C762.04 108.77 762.49 108.32 763.04 108.32C763.59 108.32 764.04 108.77 764.04 109.32V128.32H762.04V109.32Z" fill="#0070A8"/>
<path d="M781.04 118.32C785.458 118.32 789.04 114.738 789.04 110.32C789.04 105.902 785.458 102.32 781.04 102.32C776.622 102.32 773.04 105.902 773.04 110.32C773.04 114.738 776.622 118.32 781.04 118.32Z" fill="#0070A8"/>
<path d="M780.04 109.32C780.04 108.77 780.49 108.32 781.04 108.32C781.59 108.32 782.04 108.77 782.04 109.32V128.32H780.04V109.32Z" fill="#0070A8"/>
<path d="M794.04 118.32C798.458 118.32 802.04 114.738 802.04 110.32C802.04 105.902 798.458 102.32 794.04 102.32C789.622 102.32 786.04 105.902 786.04 110.32C786.04 114.738 789.622 118.32 794.04 118.32Z" fill="#0070A8"/>
<path d="M793.04 109.32C793.04 108.77 793.49 108.32 794.04 108.32C794.59 108.32 795.04 108.77 795.04 109.32V128.32H793.04V109.32Z" fill="#0070A8"/>
<path d="M878.29 112.81C878.29 106.69 874.93 96.54 870.79 96.54C866.65 96.54 863.29 106.69 863.29 112.81C863.29 117.96 865.68 121.06 868.9 121.92V128.55H872.68V121.92C875.91 121.06 878.29 117.96 878.29 112.81Z" fill="#0070A8"/>
<path d="M895.29 112.81C895.29 106.69 891.93 96.54 887.79 96.54C883.65 96.54 880.29 106.69 880.29 112.81C880.29 117.96 882.68 121.06 885.9 121.92V128.55H889.68V121.92C892.91 121.06 895.29 117.96 895.29 112.81Z" fill="#0070A8"/>
<path d="M383.58 121.4C386.64 121.4 389.12 118.92 389.12 115.86C389.12 112.8 386.64 110.32 383.58 110.32C380.52 110.32 378.04 112.8 378.04 115.86C378.04 118.92 380.52 121.4 383.58 121.4Z" fill="#DCDFE0"/>
<path d="M382.89 115.17C382.89 114.79 383.2 114.48 383.58 114.48C383.96 114.48 384.27 114.79 384.27 115.17V128.32H382.89V115.17Z" fill="#DCDFE0"/>
<path d="M396.58 121.4C399.64 121.4 402.12 118.92 402.12 115.86C402.12 112.8 399.64 110.32 396.58 110.32C393.52 110.32 391.04 112.8 391.04 115.86C391.04 118.92 393.52 121.4 396.58 121.4Z" fill="#DCDFE0"/>
<path d="M395.89 115.17C395.89 114.79 396.2 114.48 396.58 114.48C396.96 114.48 397.27 114.79 397.27 115.17V128.32H395.89V115.17Z" fill="#DCDFE0"/>
<path d="M33.58 121.4C36.6397 121.4 39.12 118.92 39.12 115.86C39.12 112.8 36.6397 110.32 33.58 110.32C30.5204 110.32 28.04 112.8 28.04 115.86C28.04 118.92 30.5204 121.4 33.58 121.4Z" fill="#DCDFE0"/>
<path d="M32.8901 115.17C32.8901 114.79 33.2001 114.48 33.5801 114.48C33.9601 114.48 34.2701 114.79 34.2701 115.17V128.32H32.8901V115.17Z" fill="#DCDFE0"/>
<path d="M75.29 112.81C75.29 106.69 71.93 96.54 67.79 96.54C63.65 96.54 60.29 106.69 60.29 112.81C60.29 117.96 62.68 121.06 65.9 121.92V128.55H69.68V121.92C72.91 121.06 75.29 117.96 75.29 112.81Z" fill="#0070A8"/>
<path d="M58.29 112.81C58.29 106.69 54.93 96.54 50.79 96.54C46.65 96.54 43.29 106.69 43.29 112.81C43.29 117.96 45.68 121.06 48.9 121.92V128.55H52.68V121.92C55.91 121.06 58.29 117.96 58.29 112.81Z" fill="#0070A8"/>
<path d="M980.04 88.32H971.04V128.32H980.04V88.32Z" fill="#0070A8"/>
<path d="M0 136H980V150C980 152.209 978.209 154 976 154H3.99997C1.79084 154 0 152.209 0 150V136Z" fill="#0070A8"/>
<line x1="1.75" y1="138.25" x2="980.25" y2="138.25" stroke="#0C7BB0" stroke-width="1.5" stroke-linecap="round" stroke-linejoin="round" stroke-dasharray="8 12"/>
<ellipse cx="649.523" cy="147.056" rx="48.5233" ry="3.50168" fill="black" fill-opacity="0.47"/>
<path fill-rule="evenodd" clip-rule="evenodd" d="M627.469 99.5732C627.07 98.9114 624.531 93.6484 624.131 92.9866C623.26 91.5421 622.351 90.0561 620.978 89.0748C619.739 88.189 617.668 87.6649 616.302 88.5839C613.803 90.2657 614.985 93.8768 615.935 96.1022C617.341 99.3947 620.625 102.747 623.93 104.201" fill="white"/>
<path d="M627.469 99.5732C627.07 98.9114 624.531 93.6484 624.131 92.9866C623.26 91.5421 622.351 90.0561 620.978 89.0748C619.739 88.189 617.668 87.6649 616.302 88.5839C613.803 90.2657 614.985 93.8768 615.935 96.1022C617.341 99.3947 620.625 102.747 623.93 104.201" stroke="#4F4C4D" stroke-width="0.639358" stroke-miterlimit="10" stroke-linecap="round" stroke-linejoin="round"/>
<path d="M613.579 147.885C608.478 147.885 604.342 143.749 604.342 138.647C604.342 133.545 608.478 129.41 613.579 129.41C618.681 129.41 622.817 133.545 622.817 138.647C622.817 143.749 618.681 147.885 613.579 147.885Z" fill="#232729"/>
<path d="M613.579 144.524C610.334 144.524 607.703 141.893 607.703 138.647C607.703 135.402 610.334 132.771 613.579 132.771C616.825 132.771 619.456 135.402 619.456 138.647C619.456 141.893 616.825 144.524 613.579 144.524Z" fill="#EDEFF0"/>
<path d="M615.292 138.647C615.292 139.593 614.525 140.359 613.579 140.359C612.634 140.359 611.867 139.593 611.867 138.647C611.867 137.702 612.634 136.935 613.579 136.935C614.525 136.935 615.292 137.702 615.292 138.647Z" fill="#CED1D2"/>
<path d="M612.756 127.094C607.678 127.094 603.53 131.069 603.255 136.078C603.239 136.371 603.478 136.609 603.771 136.609H621.741C622.035 136.609 622.274 136.371 622.258 136.078C621.982 131.071 617.833 127.094 612.756 127.094Z" fill="#999C9E"/>
<path d="M607.862 104.24C607.474 101.837 609.107 99.5751 611.509 99.1869C613.912 98.7988 616.174 100.432 616.562 102.834C616.95 105.237 615.317 107.499 612.915 107.887C610.512 108.276 608.25 106.643 607.862 104.24Z" fill="#FFEDA4"/>
<path d="M612.528 109.127H616.739C617.61 109.127 618.315 108.422 618.315 107.551V99.5291C618.315 98.6581 617.61 97.9524 616.739 97.9524H612.528C611.657 97.9524 610.952 98.6581 610.952 99.5291V107.554C610.948 108.422 611.657 109.127 612.528 109.127Z" fill="#CED1D2"/>
<path d="M659.081 101.521H679.332C679.626 101.521 679.863 101.758 679.863 102.052V121.89C679.863 122.184 679.626 122.421 679.332 122.421H659.081C658.788 122.421 658.55 122.184 658.55 121.89V102.052C658.55 101.758 658.788 101.521 659.081 101.521Z" fill="#219653"/>
<path fill-rule="evenodd" clip-rule="evenodd" d="M656.17 123.525H679.959C680.287 123.525 680.554 123.259 680.554 122.931C680.554 122.602 680.287 122.336 679.959 122.336H656.17V123.525Z" fill="#232729"/>
<path fill-rule="evenodd" clip-rule="evenodd" d="M662.051 128.735L666.879 123.048L666.187 122.461L661.358 128.148L662.051 128.735Z" fill="#232729"/>
<path d="M624.948 132.446C623.045 132.446 621.776 130.662 621.379 129.77L620.487 130.662L621.379 138.691H666.875L662.737 128.344C661.285 124.715 657.771 122.336 653.863 122.336H638.626C639.816 124.616 641.6 129.175 641.6 130.662C641.6 131.943 641.302 132.446 640.113 132.446H624.948Z" fill="#CED1D2"/>
<rect x="634.761" y="118.768" width="24.3834" height="4.75775" rx="2.37887" fill="#232729"/>
<path d="M610.972 118.47C611.566 114.604 612.558 111.234 613.35 109.549C614.639 105.485 617.216 99.5581 617.216 108.36C617.216 117.162 621.577 130.464 623.758 136.014L610.972 126.796C610.674 125.309 610.501 121.527 610.972 118.47Z" fill="#CED1D2"/>
<path d="M657.77 147.885C652.668 147.885 648.532 143.749 648.532 138.647C648.532 133.546 652.668 129.41 657.77 129.41C662.872 129.41 667.007 133.546 667.007 138.647C667.007 143.749 662.872 147.885 657.77 147.885Z" fill="#232729"/>
<path d="M657.768 144.524C654.523 144.524 651.892 141.893 651.892 138.647C651.892 135.402 654.523 132.771 657.768 132.771C661.014 132.771 663.645 135.402 663.645 138.647C663.645 141.893 661.014 144.524 657.768 144.524Z" fill="#EDEFF0"/>
<path d="M659.482 138.647C659.482 139.593 658.715 140.36 657.77 140.36C656.824 140.36 656.057 139.593 656.057 138.647C656.057 137.702 656.824 136.935 657.77 136.935C658.715 136.935 659.482 137.702 659.482 138.647Z" fill="#CED1D2"/>
<path d="M669.376 137.798C669.376 137.798 668.157 129.892 659.422 126.506C650.688 123.119 647.363 127.906 646.895 128.808C646.122 130.3 645.079 134.804 647.985 137.798H669.376Z" fill="#999C9E"/>
<path d="M662.951 135.347H653.254C653.076 135.347 652.933 135.204 652.933 135.026C652.933 134.848 653.076 134.705 653.254 134.705H662.951C663.128 134.705 663.271 134.848 663.271 135.026C663.271 135.204 663.128 135.347 662.951 135.347Z" fill="#DCDFE0"/>
<path d="M661.868 133.803H654.106C653.928 133.803 653.785 133.66 653.785 133.483C653.785 133.305 653.928 133.162 654.106 133.162H661.868C662.045 133.162 662.188 133.305 662.188 133.483C662.188 133.66 662.045 133.803 661.868 133.803Z" fill="#DCDFE0"/>
<path d="M660.78 132.293H655.221C655.044 132.293 654.9 132.15 654.9 131.972C654.9 131.794 655.044 131.651 655.221 131.651H660.78C660.957 131.651 661.101 131.794 661.101 131.972C661.101 132.15 660.957 132.293 660.78 132.293Z" fill="#DCDFE0"/>
<path d="M621.38 138.691C614.005 138.691 611.369 130.761 610.972 126.796L621.38 131.554C624.452 133.933 628.754 138.691 621.38 138.691Z" fill="#CED1D2"/>
<rect x="658.55" y="105.684" width="21.4099" height="1.18944" rx="0.486097" fill="#077538"/>
<rect x="664.497" y="122.336" width="15.4627" height="1.18944" transform="rotate(-90 664.497 122.336)" fill="#077538"/>
<rect x="615.931" y="101.521" width="8.84475" height="2.97359" rx="1.4868" transform="rotate(27.89 615.931 101.521)" fill="#232729"/>
<g clip-path="url(#clip1)">
<path fill-rule="evenodd" clip-rule="evenodd" d="M624.124 115.594C623.795 118.209 621.787 120.284 620.644 122.578C620.481 122.905 620.303 123.242 620.295 123.607C620.279 124.357 620.963 124.917 621.606 125.305C624.046 126.777 628.546 128.486 631.464 127.559C632.739 127.155 633.388 126.003 634.393 125.229C635.831 124.121 636.492 124.319 638.218 124.374C642.348 124.505 648.419 123.287 651.284 120.106" fill="white"/>
<path d="M627.207 127.981C624.89 127.489 622.642 126.426 621.387 125.668C620.35 125.043 619.855 124.366 619.871 123.598C619.88 123.157 620.07 122.777 620.238 122.442L620.264 122.389C620.654 121.607 621.144 120.845 621.618 120.109C622.542 118.675 623.496 117.193 623.703 115.541C623.733 115.309 623.945 115.144 624.177 115.173C624.41 115.203 624.574 115.415 624.545 115.647C624.314 117.49 623.307 119.055 622.332 120.568C621.849 121.318 621.393 122.027 621.024 122.768L620.997 122.821C620.857 123.101 620.725 123.366 620.719 123.616C620.71 124.048 621.082 124.494 621.825 124.942C624.109 126.321 628.526 128.048 631.336 127.155C632.065 126.923 632.581 126.393 633.127 125.832C633.438 125.512 633.76 125.181 634.133 124.893C635.514 123.829 636.312 123.866 637.635 123.926C637.819 123.934 638.017 123.943 638.231 123.95C642.589 124.089 648.363 122.715 650.968 119.823C651.125 119.649 651.394 119.635 651.567 119.792C651.742 119.949 651.756 120.217 651.599 120.391C648.691 123.619 642.616 124.938 638.204 124.798C637.986 124.791 637.784 124.782 637.596 124.773C636.316 124.715 635.786 124.691 634.651 125.565C634.325 125.816 634.039 126.111 633.735 126.423C633.14 127.035 632.525 127.667 631.592 127.964C630.277 128.381 628.727 128.304 627.207 127.981Z" fill="#4F4C4D"/>
<path fill-rule="evenodd" clip-rule="evenodd" d="M653.891 109.169C653.863 108.931 655.134 108.155 655.338 108.096C657.811 107.392 659.763 110.622 659.243 112.73C659.01 113.673 658.418 114.581 657.515 114.943C656.613 115.305 655.41 114.945 655.05 114.043" fill="white"/>
<path d="M653.891 109.169C653.863 108.931 655.134 108.155 655.338 108.096C657.811 107.392 659.763 110.622 659.243 112.73C659.01 113.673 658.418 114.581 657.515 114.943C656.613 115.305 655.41 114.945 655.05 114.043" stroke="#4F4C4D" stroke-width="0.614591" stroke-miterlimit="10" stroke-linecap="round" stroke-linejoin="round"/>
<path fill-rule="evenodd" clip-rule="evenodd" d="M625.697 121.101C625.92 123.727 624.386 126.174 623.745 128.656C623.654 129.009 623.549 129.376 623.618 129.734C623.758 130.472 624.543 130.877 625.253 131.123C627.945 132.056 632.703 132.792 635.364 131.279C636.527 130.618 636.922 129.357 637.744 128.39C638.92 127.007 639.608 127.064 641.308 126.759C645.375 126.028 651.06 123.575 653.201 119.868" fill="white"/>
<path d="M631.288 132.577C628.92 132.577 626.499 132.005 625.114 131.525C623.97 131.129 623.345 130.569 623.201 129.815C623.118 129.382 623.225 128.971 623.319 128.608L623.334 128.551C623.553 127.704 623.874 126.858 624.185 126.039C624.79 124.445 625.415 122.796 625.275 121.137C625.255 120.904 625.429 120.698 625.662 120.679C625.896 120.659 626.101 120.832 626.12 121.066C626.277 122.917 625.617 124.657 624.978 126.34C624.662 127.174 624.363 127.962 624.156 128.763L624.141 128.821C624.062 129.124 623.988 129.41 624.035 129.656C624.116 130.08 624.572 130.439 625.392 130.723C627.913 131.597 632.593 132.367 635.155 130.91C635.821 130.532 636.215 129.906 636.632 129.243C636.87 128.866 637.116 128.475 637.422 128.116C638.551 126.788 639.339 126.658 640.646 126.442C640.828 126.412 641.023 126.379 641.234 126.342C645.525 125.571 650.888 123.028 652.835 119.657C652.953 119.454 653.212 119.385 653.415 119.502C653.618 119.619 653.687 119.878 653.57 120.081C651.397 123.843 645.73 126.396 641.384 127.177C641.17 127.215 640.971 127.249 640.785 127.279C639.52 127.488 638.996 127.575 638.069 128.666C637.802 128.979 637.583 129.327 637.351 129.696C636.896 130.418 636.426 131.165 635.575 131.648C634.374 132.33 632.842 132.577 631.288 132.577Z" fill="#4F4C4D"/>
<path d="M626.925 98.7565C626.85 100.352 625.285 103.044 624.845 104.589C624.171 106.959 623.861 109.407 623.554 111.844C623.419 112.917 623.283 114.012 623.481 115.065C623.813 116.831 625.025 118.244 626.194 119.568C627.414 120.952 628.764 122.411 630.578 122.751C631.87 122.993 633.22 122.62 634.448 122.082C635.663 121.548 636.812 120.849 637.853 120.009C638.718 119.311 639.522 118.498 640.037 117.507C640.623 116.38 640.802 115.094 640.893 113.836C641.106 110.931 640.894 107.95 639.786 105.308C638.435 102.085 635.836 99.574 632.933 97.7135C631.932 97.0716 630.866 96.4892 629.692 96.2703C628.788 96.1016 627.209 96.0842 626.508 96.8763C625.851 97.6192 626.968 97.8593 626.925 98.7565Z" fill="white"/>
<path fill-rule="evenodd" clip-rule="evenodd" d="M642.701 126.435C645.44 125.698 647.678 124.745 650.041 123.098C651.907 121.796 653.47 120.065 654.438 117.996C657.112 112.285 655.041 104.706 653.426 98.968C652.839 96.8819 653.24 94.4656 653.065 92.2918C652.64 87.0152 649.811 81.453 644.748 79.6699C640.16 78.0544 634.267 78.9281 630.369 82.3313C626.482 85.7253 627.691 89.8805 626.924 94.9453" fill="white"/>
<path d="M642.701 126.435C645.44 125.698 647.678 124.745 650.041 123.098C651.907 121.796 653.47 120.065 654.438 117.996C657.112 112.285 655.041 104.706 653.426 98.968C652.839 96.8819 653.24 94.4656 653.065 92.2918C652.64 87.0152 649.811 81.453 644.748 79.6699C640.16 78.0544 634.267 78.9281 630.369 82.3313C626.482 85.7253 627.691 89.8805 626.924 94.9453" stroke="#4F4C4D" stroke-width="0.639358" stroke-miterlimit="10" stroke-linecap="round" stroke-linejoin="round"/>
<path fill-rule="evenodd" clip-rule="evenodd" d="M626.925 98.7566C624.475 102.622 623.558 105.212 622.651 107.147C621.682 109.214 621.02 111.441 620.894 113.729C620.694 117.355 621.97 121.168 624.753 123.502" fill="white"/>
<path d="M626.925 98.7566C624.475 102.622 623.558 105.212 622.651 107.147C621.682 109.214 621.02 111.441 620.894 113.729C620.694 117.355 621.97 121.168 624.753 123.502" stroke="#4F4C4D" stroke-width="0.639358" stroke-miterlimit="10" stroke-linecap="round" stroke-linejoin="round"/>
<path fill-rule="evenodd" clip-rule="evenodd" d="M629.574 102.401C628.805 102.474 628.036 102.546 627.266 102.619C625.587 102.777 623.853 102.952 622.374 103.763C621.039 104.495 619.668 106.134 619.903 107.763C620.334 110.744 624.1 111.246 626.518 111.356C630.094 111.517 634.234 110.283 636.978 107.935" fill="white"/>
<path d="M629.574 102.401C628.805 102.474 628.036 102.546 627.266 102.619C625.587 102.777 623.853 102.952 622.374 103.763C621.039 104.495 619.668 106.134 619.903 107.763C620.334 110.744 624.1 111.246 626.518 111.356C630.094 111.517 634.234 110.283 636.978 107.935" stroke="#4F4C4D" stroke-width="0.639358" stroke-miterlimit="10" stroke-linecap="round" stroke-linejoin="round"/>
</g>
<ellipse cx="641.633" cy="72.9748" rx="6.02605" ry="4.20968" fill="white"/>
<path d="M638.685 96.7332C638.698 96.7546 638.719 96.7717 638.741 96.7845C638.886 96.8871 639.565 96.3956 639.578 96.246C639.583 96.1905 639.553 96.1392 639.518 96.0964C639.459 96.0067 639.394 95.9212 639.335 95.8315C639.241 95.699 639.074 95.5494 638.941 95.6392C638.89 95.6733 638.86 95.7374 638.839 95.793C638.77 95.9853 638.51 96.5024 638.685 96.7332Z" fill="#96694A" stroke="#704A30" stroke-width="0.082674" stroke-miterlimit="10"/>
<path d="M653.395 99.1009C654.771 95.2117 655.228 90.9336 654.236 86.9248C652.856 81.3219 647.967 76.6079 642.116 75.907C639.616 75.6078 637.043 75.9882 634.744 77.0096C631.602 78.4029 629.654 80.0867 627.842 83.0357C623.93 87.5952 624.202 98.2121 628.83 99.8455" fill="white"/>
<path d="M653.395 99.1009C654.771 95.2117 655.228 90.9336 654.236 86.9248C652.856 81.3219 647.967 76.6079 642.116 75.907C639.616 75.6078 637.043 75.9882 634.744 77.0096C631.602 78.4029 629.654 80.0867 627.842 83.0357C623.93 87.5952 624.202 98.2121 628.83 99.8455" stroke="#4F4C4D" stroke-width="0.634545" stroke-miterlimit="10" stroke-linecap="round" stroke-linejoin="round"/>
<path d="M651.677 83.54C652.771 83.6682 653.912 83.0784 654.442 82.1126C656.126 79.0525 650.741 75.9326 649.707 79.6893" fill="white"/>
<path d="M651.677 83.54C652.771 83.6682 653.912 83.0784 654.442 82.1126C656.126 79.0525 650.741 75.9326 649.707 79.6893" stroke="#4F4C4D" stroke-width="0.634545" stroke-miterlimit="10" stroke-linecap="round" stroke-linejoin="round"/>
<path d="M636.881 93.3143C636.496 92.2715 636.654 91.0406 637.295 90.1303C637.936 89.22 639.039 88.6559 640.15 88.6644C641.283 88.6772 642.415 89.3097 642.932 90.3184C643.398 91.2287 643.338 92.3057 643.27 93.3271" stroke="#4F4C4D" stroke-width="0.390491" stroke-miterlimit="10" stroke-linecap="round" stroke-linejoin="round"/>
<path d="M640.209 91.4851C639.936 91.5492 639.658 91.6133 639.38 91.562C639.107 91.5107 638.838 91.3141 638.799 91.0363C638.778 90.8867 638.825 90.7371 638.902 90.6047C639.162 90.173 639.714 90.0149 640.218 89.9978C640.551 89.985 640.902 90.0192 641.175 90.2072C641.453 90.3953 641.624 90.7671 641.492 91.0705C641.333 91.4423 640.855 91.5364 640.453 91.5791C639.983 91.6261 639.487 91.6688 639.064 91.4637" fill="#4F4C4D"/>
<path d="M640.209 91.4851C639.936 91.5492 639.658 91.6133 639.38 91.562C639.107 91.5107 638.838 91.3141 638.799 91.0363C638.778 90.8867 638.825 90.7371 638.902 90.6047C639.162 90.173 639.714 90.0149 640.218 89.9978C640.551 89.985 640.902 90.0192 641.175 90.2072C641.453 90.3953 641.624 90.7671 641.492 91.0705C641.333 91.4423 640.855 91.5364 640.453 91.5791C639.983 91.6261 639.487 91.6688 639.064 91.4637" stroke="#4F4C4D" stroke-width="0.04881" stroke-miterlimit="10" stroke-linecap="round" stroke-linejoin="round"/>
<path d="M640.291 94.2887C640.321 94.2332 640.368 94.3614 640.308 94.3656C640.248 94.3699 640.214 94.2972 640.197 94.2374C639.991 93.3955 639.979 92.5108 640.158 91.6603C639.906 92.5365 640.043 93.4083 640.291 94.2887Z" fill="white" stroke="#4F4C4D" stroke-width="0.634545" stroke-miterlimit="10" stroke-linecap="round" stroke-linejoin="round"/>
<path d="M635.752 88.5105C635.316 88.2883 634.71 88.5874 634.616 89.0661C634.522 89.5448 634.97 90.0491 635.458 90.0149C635.945 89.9807 636.317 89.4208 636.163 88.9593C636.009 88.4934 635.381 88.2712 634.962 88.5276" fill="#4F4C4D"/>
<path d="M635.752 88.5105C635.316 88.2883 634.71 88.5874 634.616 89.0661C634.522 89.5448 634.97 90.0491 635.458 90.0149C635.945 89.9807 636.317 89.4208 636.163 88.9593C636.009 88.4934 635.381 88.2712 634.962 88.5276" stroke="#4F4C4D" stroke-width="0.04881" stroke-miterlimit="10" stroke-linecap="round" stroke-linejoin="round"/>
<path d="M644.984 88.673C644.548 88.4507 643.941 88.7499 643.847 89.2285C643.753 89.7072 644.202 90.2115 644.689 90.1773C645.176 90.1431 645.548 89.5833 645.394 89.1217C645.24 88.6559 644.612 88.4336 644.193 88.69" fill="#4F4C4D"/>
<path d="M644.984 88.673C644.548 88.4507 643.941 88.7499 643.847 89.2285C643.753 89.7072 644.202 90.2115 644.689 90.1773C645.176 90.1431 645.548 89.5833 645.394 89.1217C645.24 88.6559 644.612 88.4336 644.193 88.69" stroke="#4F4C4D" stroke-width="0.04881" stroke-miterlimit="10" stroke-linecap="round" stroke-linejoin="round"/>
<path d="M650.706 92.0065C650.655 92.0322 650.612 92.0706 650.578 92.1134C650.454 92.28 650.335 92.4467 650.211 92.6177C650.065 92.3313 649.916 92.045 649.77 91.7586C649.672 92.0407 649.51 92.3014 649.292 92.5108C649.031 92.2159 648.835 91.8655 648.715 91.4894" stroke="#4F4C4D" stroke-width="0.219649" stroke-miterlimit="10" stroke-linecap="round" stroke-linejoin="round"/>
<path d="M632.038 91.8655C631.987 91.8911 631.944 91.9296 631.91 91.9723C631.786 92.139 631.667 92.3057 631.543 92.4724C631.397 92.186 631.248 91.8997 631.103 91.6133C631.004 91.8954 630.842 92.1561 630.624 92.3655C630.363 92.0706 630.167 91.7202 630.047 91.3441" stroke="#4F4C4D" stroke-width="0.219649" stroke-miterlimit="10" stroke-linecap="round" stroke-linejoin="round"/>
<path d="M629.406 82.292C628.363 82.7579 627.38 81.3774 627.12 80.5141C626.513 78.5012 628.684 75.954 630.752 76.407C631.787 76.6336 632.257 77.6251 632.513 78.5653" fill="white"/>
<path d="M629.406 82.292C628.363 82.7579 627.38 81.3774 627.12 80.5141C626.513 78.5012 628.684 75.954 630.752 76.407C631.787 76.6336 632.257 77.6251 632.513 78.5653" stroke="#4F4C4D" stroke-width="0.634545" stroke-miterlimit="10" stroke-linecap="round" stroke-linejoin="round"/>
<path d="M635.668 70.5861C635.642 70.7101 635.497 70.7998 635.377 70.7571C634.625 70.1502 634.963 68.9279 635.514 68.1373C636.818 66.2611 639.04 65.0216 641.327 65.0003C643.613 64.9789 645.895 66.2055 647.053 68.18C648.212 70.1502 648.152 72.8 646.831 74.6676" fill="white"/>
<path d="M635.668 70.5861C635.642 70.7101 635.497 70.7998 635.377 70.7571C634.625 70.1502 634.963 68.9279 635.514 68.1373C636.818 66.2611 639.04 65.0216 641.327 65.0003C643.613 64.9789 645.895 66.2055 647.053 68.18C648.212 70.1502 648.152 72.8 646.831 74.6676" stroke="#4F4C4D" stroke-width="0.634545" stroke-miterlimit="10" stroke-linecap="round" stroke-linejoin="round"/>
<path d="M635.527 73.6333C635.433 75.8257 635.514 75.112 635.164 77.2745C634.796 79.5311 636.54 80.9885 638.463 81.7107C639.822 82.2193 641.288 82.4929 642.741 82.3262C643.792 82.2065 644.592 81.9244 645.421 81.215C646.28 80.4842 646.395 79.3345 646.472 78.2532C646.545 77.2788 646.617 76.3001 646.707 75.3257" fill="white"/>
<path d="M635.527 73.6333C635.433 75.8257 635.514 75.112 635.164 77.2745C634.796 79.5311 636.54 80.9885 638.463 81.7107C639.822 82.2193 641.288 82.4929 642.741 82.3262C643.792 82.2065 644.592 81.9244 645.421 81.215C646.28 80.4842 646.395 79.3345 646.472 78.2532C646.545 77.2788 646.617 76.3001 646.707 75.3257" stroke="#4F4C4D" stroke-width="0.634545" stroke-miterlimit="10" stroke-linecap="round" stroke-linejoin="round"/>
<path d="M636.167 74.5265C635.458 75.1291 634.317 75.1419 633.595 74.5564C631.898 73.1802 632.808 70.1031 634.967 69.8894C635.843 69.804 636.749 70.2185 637.257 70.9365" fill="white"/>
<path d="M636.167 74.5265C635.458 75.1291 634.317 75.1419 633.595 74.5564C631.898 73.1802 632.808 70.1031 634.967 69.8894C635.843 69.804 636.749 70.2185 637.257 70.9365" stroke="#4F4C4D" stroke-width="0.634545" stroke-miterlimit="10" stroke-linecap="round" stroke-linejoin="round"/>
<path d="M640.621 74.8727C641.236 74.6377 642.117 74.6633 642.629 75.1035C643.258 75.642 643.454 76.6079 643.018 77.3302C642.582 78.0482 641.629 78.3815 640.817 78.1593C640.522 78.0781 640.236 77.9285 640.044 77.6892C639.933 77.5481 639.851 77.3643 639.698 77.2661C639.527 77.1549 639.287 77.219 639.129 77.1165C638.839 76.9284 638.997 76.6976 639.18 76.4669C639.377 76.219 639.561 75.9668 639.728 75.7019C639.89 75.4369 640.087 75.1933 640.343 75.0181C640.428 74.9539 640.522 74.9069 640.621 74.8727Z" fill="#FF672B"/>
<path d="M640.716 77.0696H640.711C640.635 77.0397 640.6 76.9756 640.588 76.9499C640.374 76.5525 640.438 76.1037 640.528 75.6336C640.545 75.5524 640.622 75.5011 640.699 75.5182C640.78 75.5353 640.831 75.6122 640.814 75.6892C640.741 76.0695 640.686 76.4328 640.806 76.732C641.006 76.5097 641.169 76.249 641.28 75.9712C641.31 75.8986 641.391 75.8601 641.464 75.8858C641.541 75.9071 641.579 75.9883 641.558 76.0653C641.498 76.2875 641.464 76.514 641.455 76.7405C641.451 76.8089 641.464 76.8559 641.477 76.873C641.485 76.8687 641.506 76.8602 641.541 76.8303C641.81 76.6208 642.024 76.3473 642.16 76.0396C642.195 75.967 642.28 75.9328 642.353 75.9627C642.425 75.9969 642.459 76.0823 642.43 76.1593C642.271 76.514 642.028 76.826 641.724 77.0653C641.677 77.0995 641.558 77.1935 641.412 77.1636C641.259 77.1294 641.165 76.9841 641.165 76.7704C641.105 76.8474 641.041 76.92 640.972 76.9927C640.87 77.0995 640.771 77.091 640.716 77.0696Z" fill="white"/>
<path d="M646.198 72.3768C647.172 71.4836 648.882 71.6033 649.758 72.5948C650.634 73.5906 650.557 75.2616 649.621 76.2019C648.69 77.1421 647.057 77.249 645.984 76.4711" fill="white"/>
<path d="M646.198 72.3768C647.172 71.4836 648.882 71.6033 649.758 72.5948C650.634 73.5906 650.557 75.2616 649.621 76.2019C648.69 77.1421 647.057 77.249 645.984 76.4711" stroke="#4F4C4D" stroke-width="0.61014" stroke-miterlimit="10" stroke-linecap="round" stroke-linejoin="round"/>
<path d="M635.15 77.3473C636.92 79.2064 639.433 80.3389 641.997 80.4329C643.587 80.4928 645.271 80.1167 646.412 79.0098" fill="white"/>
<path d="M635.15 77.3473C636.92 79.2064 639.433 80.3389 641.997 80.4329C643.587 80.4928 645.271 80.1167 646.412 79.0098" stroke="#4F4C4D" stroke-width="0.634545" stroke-miterlimit="10" stroke-linecap="round" stroke-linejoin="round"/>
<g clip-path="url(#clip2)">
<path d="M686.812 90.3712C683.584 86.9907 678.225 86.9429 674.937 90.2278C672.271 92.8919 671.799 96.9174 673.521 100.064C673.553 100.124 673.579 100.187 673.597 100.251C673.632 100.376 673.635 100.508 673.618 100.637L673.359 102.589C673.359 103.108 673.781 103.529 674.3 103.529L676.298 103.269C676.479 103.245 676.663 103.279 676.824 103.367L676.828 103.369C679.944 105.07 683.92 104.627 686.586 102.037C689.831 98.8853 689.935 93.6433 686.812 90.3712Z" fill="#0AB356"/>
</g>
<path fill-rule="evenodd" clip-rule="evenodd" d="M684.463 92.5434C684.127 92.2058 683.596 92.2058 683.26 92.5434L680.856 94.9602L678.452 92.5434C678.117 92.2058 677.586 92.2058 677.25 92.5434C676.914 92.8809 676.914 93.4148 677.25 93.7525L679.654 96.1692L680.856 97.3783L682.059 96.1692L684.463 93.7525C684.799 93.4148 684.799 92.8809 684.463 92.5434Z" fill="white"/>
<path fill-rule="evenodd" clip-rule="evenodd" d="M683.862 100.14C684.337 100.14 684.712 99.7626 684.712 99.2851L684.712 94.1252L683.011 95.835L683.011 99.2851C683.011 99.7626 683.387 100.14 683.862 100.14Z" fill="white"/>
<mask id="mask0" mask-type="alpha" maskUnits="userSpaceOnUse" x="676" y="94" width="3" height="7">
<path fill-rule="evenodd" clip-rule="evenodd" d="M677.849 100.14H676.998V94.1252H678.699V100.14H677.849Z" fill="white"/>
</mask>
<g mask="url(#mask0)">
<path fill-rule="evenodd" clip-rule="evenodd" d="M677.848 100.14C677.374 100.14 676.998 99.7626 676.998 99.2851L676.998 94.1252L678.699 95.835L678.699 99.2851C678.699 99.7626 678.323 100.14 677.848 100.14Z" fill="white"/>
</g>
<ellipse cx="328.61" cy="132.557" rx="29.6104" ry="3.54836" fill="black" fill-opacity="0.47"/>
<path d="M349.859 134.767C353.263 134.767 356.023 132.007 356.023 128.603C356.023 125.199 353.263 122.439 349.859 122.439C346.455 122.439 343.695 125.199 343.695 128.603C343.695 132.007 346.455 134.767 349.859 134.767Z" fill="#232729"/>
<path d="M349.859 132.524C352.025 132.524 353.78 130.769 353.78 128.603C353.78 126.437 352.025 124.682 349.859 124.682C347.694 124.682 345.938 126.437 345.938 128.603C345.938 130.769 347.694 132.524 349.859 132.524Z" fill="#EDEFF0"/>
<path d="M348.718 128.603C348.718 129.234 349.23 129.746 349.86 129.746C350.491 129.746 351.003 129.234 351.003 128.603C351.003 127.972 350.491 127.46 349.86 127.46C349.23 127.46 348.718 127.972 348.718 128.603Z" fill="#CED1D2"/>
<path d="M350.407 120.894C353.484 120.894 356.049 123.081 356.633 125.986C356.77 126.671 356.191 127.243 355.492 127.243H345.322C344.623 127.243 344.044 126.671 344.182 125.986C344.765 123.082 347.331 120.894 350.407 120.894Z" fill="#232729"/>
<path d="M353.671 105.644C353.93 104.041 352.841 102.531 351.238 102.272C349.635 102.013 348.125 103.103 347.866 104.706C347.607 106.309 348.697 107.819 350.3 108.078C351.903 108.337 353.412 107.247 353.671 105.644Z" fill="white"/>
<path d="M350.558 108.905H347.749C347.168 108.905 346.697 108.434 346.697 107.853V102.501C346.697 101.92 347.168 101.449 347.749 101.449H350.558C351.14 101.449 351.61 101.92 351.61 102.501V107.855C351.613 108.434 351.14 108.905 350.558 108.905Z" fill="#999C9E"/>
<path d="M320.117 101.287H308.425C307.726 101.287 307.16 101.853 307.16 102.551V113.968C307.16 114.667 307.726 115.233 308.425 115.233H320.117C320.816 115.233 321.382 114.667 321.382 113.968V102.551C321.382 101.853 320.816 101.287 320.117 101.287Z" fill="#219653"/>
<path fill-rule="evenodd" clip-rule="evenodd" d="M322.969 115.97H307.096C306.876 115.97 306.699 115.792 306.699 115.573C306.699 115.354 306.876 115.176 307.096 115.176H322.969V115.97Z" fill="#232729"/>
<path fill-rule="evenodd" clip-rule="evenodd" d="M319.046 119.446L315.824 115.651L316.286 115.259L319.508 119.054L319.046 119.446Z" fill="#232729"/>
<path d="M342.272 124.465C343.542 124.465 344.389 123.275 344.653 122.679L345.249 123.275L344.653 128.632H314.295C313.05 119.905 321.117 112.739 329.636 115.004L333.276 115.972C332.483 117.494 331.161 122.283 331.161 123.275C331.161 124.129 331.359 124.465 332.153 124.465H342.272Z" fill="#999C9E"/>
<rect width="16.2703" height="3.17469" rx="1.58735" transform="matrix(-1 0 0 1 335.685 112.884)" fill="#232729"/>
<path d="M351.598 115.139C351.201 112.56 350.54 110.311 350.011 109.187C349.151 106.475 347.431 102.52 347.431 108.393C347.431 114.266 344.521 123.142 343.066 126.846L351.598 120.695C351.796 119.703 351.912 117.179 351.598 115.139Z" fill="#999C9E"/>
<path d="M320.37 134.767C323.775 134.767 326.534 132.007 326.534 128.603C326.534 125.199 323.775 122.439 320.37 122.439C316.966 122.439 314.207 125.199 314.207 128.603C314.207 132.007 316.966 134.767 320.37 134.767Z" fill="#232729"/>
<path d="M320.37 132.524C322.536 132.524 324.292 130.769 324.292 128.603C324.292 126.437 322.536 124.682 320.37 124.682C318.205 124.682 316.449 126.437 316.449 128.603C316.449 130.769 318.205 132.524 320.37 132.524Z" fill="#EDEFF0"/>
<path d="M319.228 128.603C319.228 129.234 319.739 129.746 320.37 129.746C321.001 129.746 321.513 129.234 321.513 128.603C321.513 127.972 321.001 127.461 320.37 127.461C319.739 127.461 319.228 127.972 319.228 128.603Z" fill="#CED1D2"/>
<path d="M312.625 128.037C312.625 128.037 313.439 122.761 319.267 120.501C325.095 118.242 327.314 121.436 327.626 122.037C328.142 123.033 328.838 126.038 326.899 128.037H312.625Z" fill="#232729"/>
<path d="M316.914 126.401H323.385C323.503 126.401 323.599 126.305 323.599 126.187C323.599 126.068 323.503 125.973 323.385 125.973H316.914C316.796 125.973 316.7 126.068 316.7 126.187C316.7 126.305 316.796 126.401 316.914 126.401Z" fill="#DCDFE0"/>
<path d="M317.637 125.371H322.817C322.935 125.371 323.031 125.275 323.031 125.157C323.031 125.038 322.935 124.943 322.817 124.943H317.637C317.519 124.943 317.423 125.038 317.423 125.157C317.423 125.275 317.519 125.371 317.637 125.371Z" fill="#DCDFE0"/>
<path d="M318.363 124.363H322.072C322.19 124.363 322.286 124.267 322.286 124.149C322.286 124.03 322.19 123.935 322.072 123.935H318.363C318.244 123.935 318.148 124.03 318.148 124.149C318.148 124.267 318.244 124.363 318.363 124.363Z" fill="#DCDFE0"/>
<path d="M344.654 128.632C349.575 128.632 351.334 123.341 351.599 120.695L344.654 123.87C342.604 125.457 339.733 128.632 344.654 128.632Z" fill="#999C9E"/>
<rect width="14.2861" height="0.793673" rx="0.396836" transform="matrix(-1 0 0 1 321.383 104.064)" fill="#077538"/>
<rect width="10.3177" height="0.793673" transform="matrix(4.37114e-08 -1 -1 -4.37114e-08 317.414 115.176)" fill="#077538"/>
<rect width="5.90182" height="1.98418" rx="0.992091" transform="matrix(-0.883847 0.467776 0.467776 0.883847 348.289 103.83)" fill="#232729"/>
<g clip-path="url(#clip3)">
<path d="M301.756 96.159C304.019 93.7889 307.777 93.7554 310.082 96.0585C311.951 97.9264 312.282 100.749 311.075 102.955C311.052 102.997 311.034 103.041 311.021 103.086C310.997 103.174 310.995 103.266 311.007 103.356L311.188 104.725C311.188 105.089 310.892 105.384 310.528 105.384L309.128 105.202C309.001 105.185 308.871 105.209 308.759 105.27L308.756 105.272C306.571 106.465 303.783 106.154 301.914 104.338C299.639 102.128 299.566 98.4532 301.756 96.159Z" fill="#0AB356"/>
</g>
<path fill-rule="evenodd" clip-rule="evenodd" d="M303.403 97.682C303.638 97.4454 304.011 97.4454 304.246 97.682L305.932 99.3765L307.617 97.682C307.852 97.4454 308.225 97.4454 308.46 97.682C308.696 97.9187 308.696 98.293 308.46 98.5297L306.775 100.224L305.932 101.072L305.088 100.224L303.403 98.5297C303.168 98.293 303.168 97.9187 303.403 97.682Z" fill="white"/>
<path fill-rule="evenodd" clip-rule="evenodd" d="M303.824 103.008C303.491 103.008 303.228 102.744 303.228 102.409L303.228 98.7911L304.42 99.9898L304.42 102.409C304.42 102.744 304.157 103.008 303.824 103.008Z" fill="white"/>
<mask id="mask1" mask-type="alpha" maskUnits="userSpaceOnUse" x="307" y="98" width="2" height="6">
<path fill-rule="evenodd" clip-rule="evenodd" d="M308.04 103.008H308.637V98.7911H307.444V103.008H308.04Z" fill="white"/>
</mask>
<g mask="url(#mask1)">
<path fill-rule="evenodd" clip-rule="evenodd" d="M308.04 103.008C308.373 103.008 308.637 102.744 308.637 102.409L308.637 98.7911L307.444 99.9898L307.444 102.409C307.444 102.744 307.708 103.008 308.04 103.008Z" fill="white"/>
</g>
<path d="M348.828 102.269L349.885 102.866C350.072 102.972 350.145 103.205 350.051 103.399C349.946 103.615 349.678 103.694 349.472 103.569L348.629 103.054C348.402 103.257 347.675 104.71 346.04 103.983C344.148 103.143 344.95 100.895 347.437 100.895C348.55 100.895 348.828 101.811 348.828 102.269Z" fill="#232729"/>
<path d="M333.249 97.1961C333.755 95.7119 335.359 94.648 335.359 94.648L332.376 92.4216C332.376 92.4216 331.919 93.9513 329.989 95.3409C329.622 95.6097 333.249 97.1961 333.249 97.1961Z" fill="#D8AD8F"/>
<path d="M336.966 87.9803C335.865 86.2348 331.068 85.9319 330.997 89.0859C330.874 94.8297 334.448 95.1402 334.448 95.1402C335.617 94.966 335.928 95.0569 336.734 94.6177C337.127 94.4019 337.408 93.743 337.562 92.9025C337.922 92.7737 338.296 92.5882 338.218 92.3307C337.985 91.9975 337.817 91.7136 337.693 91.4637C337.712 90.1688 337.48 88.8019 336.966 87.9803Z" fill="#E5C0A8"/>
<path d="M336.505 87.1359C334.912 87.0148 331.008 87.2571 330.937 89.1048C330.727 94.6442 334.388 95.1591 334.388 95.1591C334.523 95.1402 335.662 94.9925 335.774 94.9774C334.024 93.0388 335.351 88.4043 336.505 87.1359Z" fill="#D8AD8F"/>
<path d="M332.07 87.6849C332.422 87.0905 332.441 86.5187 333.928 86.4809C335.371 86.443 335.918 86.2575 336.892 87.2154C337.39 87.7076 337.405 88.7905 337.405 88.7905C337.405 88.7905 336.847 88.6997 336.506 88.8057C336.165 88.9117 335.693 88.7299 335.258 89.3963C334.891 89.9567 334.805 90.5928 334.805 90.5928C334.805 90.5928 333.355 91.1873 333.344 91.6757C333.332 92.1641 331.691 93.8112 331.691 93.8112C331.691 93.8112 331.058 91.6795 330.758 90.589C330.061 88.0371 331.987 87.825 332.07 87.6849Z" fill="#7F3724"/>
<path d="M339.53 87.0185C339.818 87.0526 340.482 87.3934 340.144 88.1204C339.807 88.8435 339.425 88.7375 338.777 88.8246C337.761 88.9647 336.866 88.9155 336.866 88.9155L339.53 87.0185Z" fill="#2D541E"/>
<path d="M331.308 92.7018C331.732 92.3118 334.04 89.9529 334.04 89.9529C334.04 89.9529 336.457 90.0779 337.21 89.544C337.963 89.0139 338.457 87.1738 339.821 87.045C338.101 87.0299 337.375 87.2419 337.375 87.2419C337.375 87.2419 336.374 86.0076 334.253 86C333.339 85.9962 331.986 86.5566 331.57 87.0564C331.158 87.5562 330.008 88.4611 330.266 90.0589C330.529 91.6568 331.308 92.7018 331.308 92.7018Z" fill="#0AB356"/>
<path d="M334.055 90.9752C333.811 90.7594 333.609 90.4149 333.324 90.7064C333.035 90.998 332.732 92.414 333.309 92.8305C333.886 93.2546 334.055 90.9752 334.055 90.9752Z" fill="#D8AD8F"/>
<path d="M339.256 120.043L338.709 123.079L341.68 125.109C341.68 125.109 342.962 126.476 340.819 125.953C338.151 125.302 337.66 126.021 336.614 125.734C335.768 125.499 335.895 124.923 336.202 124.034C336.509 123.144 337.042 120.084 337.042 120.084L339.256 120.043Z" fill="#D8AD8F"/>
<path d="M342.732 125.302C342.961 125.7 341.957 126.551 340.413 126.124C338.112 125.484 337.153 126.165 336.456 125.836C335.576 125.419 335.887 124.817 336.25 123.795C336.291 123.674 341.537 124.961 341.537 124.961C341.537 124.961 342.5 124.904 342.732 125.302Z" fill="#8D918F"/>
<path d="M330.038 108.415C330.825 108.555 340.893 110.861 341.23 110.967C341.984 111.209 342.051 112.073 342.017 112.421C341.984 112.765 339.878 122.841 339.878 122.841L337.067 122.504C337.067 122.504 336.779 119.304 337.768 114.231C337.768 114.231 323.811 114.572 323.811 112.739C323.811 110.906 330.038 108.415 330.038 108.415Z" fill="#05293C"/>
<path d="M333.042 98.9572C334.208 98.9793 337.946 99.9948 338.556 99.8553C339.943 99.538 342.89 95.0004 342.89 95.0004L345.218 96.6011C345.218 96.6011 341.687 102.128 340.157 103.114C339.165 103.756 332.435 103.108 331.219 101.565C330.461 100.604 333.042 98.9572 333.042 98.9572Z" fill="#037637"/>
<path d="M337.473 114.655C337.473 114.655 323.758 114.545 323.758 112.712C323.758 112.232 323.702 111.463 324.249 110.853C324.995 110.024 326.509 109.35 327.558 108.835C330.417 109.293 337.637 110.675 340.272 111.577C340.65 111.705 340.86 112.16 340.916 112.338C341.167 113.099 339.395 120.683 339.196 122.769L335.97 122.409C335.97 122.405 336.487 119.728 337.473 114.655Z" fill="#084564"/>
<path d="M326.696 99.0287C327.771 95.8974 330.323 94.8562 330.567 94.8259L333.722 96.7077C334.677 101.297 333.163 104.765 332.526 105.931C332.185 107.396 331.949 108.396 331.762 109.07C331.226 108.828 323.781 112.114 323.781 112.114C323.781 112.114 324.122 107.934 324.89 105.67C325.602 103.576 325.594 102.243 326.696 99.0287Z" fill="#0AB356"/>
<path d="M339.417 105.371C340.106 105.409 341.38 105.677 341.65 105.719C341.92 105.761 343.936 104.966 344.194 105.075C344.457 105.185 345.427 106.151 345.858 106.499C345.858 106.499 345.907 107.237 345.052 106.794C343.704 106.094 343.213 107.033 342.516 107.063C341.819 107.094 341.654 107.048 341.384 107.006C341.114 106.965 339.481 106.779 339.481 106.779L339.417 105.371Z" fill="#E5C0A8"/>
<path d="M339.952 105.253L340.657 105.416L340.462 107.537L339.694 107.468L339.952 105.253Z" fill="white"/>
<path d="M331.38 97.2908C331.901 98.4229 332.938 102.656 333.358 103.179C334.306 104.364 340.032 104.977 340.032 104.977L339.784 107.949C339.784 107.949 332.627 107.237 330.975 106.227C329.896 105.568 327.569 99.112 328.483 97.2264C329.502 95.1099 331.38 97.2908 331.38 97.2908Z" fill="#059E4A"/>
<path d="M351.448 99.5072C351.488 99.3331 351.38 99.1593 351.206 99.1191L338.909 96.2791C338.735 96.2389 338.561 96.3474 338.521 96.5216C338.4 97.044 338.726 97.5653 339.248 97.6859L350.284 100.235C350.806 100.355 351.328 100.03 351.448 99.5072Z" fill="#76797A"/>
<path d="M346.369 92.0237C349.765 92.8079 351.931 95.9846 351.207 99.1191L338.91 96.2791C339.634 93.1447 342.974 91.2395 346.369 92.0237Z" fill="#999C9E"/>
<path fill-rule="evenodd" clip-rule="evenodd" d="M347.346 91.9453C347.443 92.1758 347.436 92.4341 347.399 92.5939C347.359 92.768 347.468 92.9418 347.642 92.982C347.816 93.0222 347.99 92.9137 348.03 92.7395C348.09 92.4789 348.103 92.0775 347.943 91.6951C347.775 91.2939 347.425 90.9392 346.818 90.7989C346.21 90.6587 345.74 90.8241 345.413 91.1108C345.101 91.3842 344.937 91.7507 344.877 92.0113C344.837 92.1855 344.945 92.3592 345.119 92.3995C345.294 92.4397 345.467 92.3311 345.508 92.157C345.544 91.9972 345.652 91.7623 345.84 91.5975C346.013 91.4461 346.27 91.3368 346.672 91.4295C347.074 91.5223 347.257 91.7336 347.346 91.9453Z" fill="#999C9E"/>
<circle r="0.323598" transform="matrix(-0.974352 -0.225031 -0.225031 0.974352 348.369 94.1464)" fill="white"/>
<path fill-rule="evenodd" clip-rule="evenodd" d="M348.912 94.9176C348.781 95.0402 348.775 95.245 348.898 95.375C349.254 95.7525 349.906 96.8424 349.618 98.088C349.578 98.2621 349.686 98.4359 349.861 98.4761C350.035 98.5163 350.208 98.4078 350.249 98.2336C350.602 96.7046 349.813 95.4028 349.369 94.9311C349.246 94.8011 349.042 94.795 348.912 94.9176Z" fill="white"/>
<path d="M421.938 56.2615C421.938 56.6512 421.865 57.0038 421.719 57.3254C421.573 57.647 421.378 57.9316 421.128 58.1666C420.878 58.4079 420.592 58.5872 420.257 58.7171C419.928 58.847 419.569 58.9151 419.185 58.9151C418.807 58.9151 418.448 58.847 418.113 58.7171C417.778 58.5872 417.491 58.4017 417.241 58.1666C416.992 57.9316 416.797 57.647 416.651 57.3254C416.504 57.0038 416.431 56.645 416.431 56.2615V49.1667C416.242 49.1605 416.06 49.1544 415.865 49.1482C415.676 49.142 415.487 49.142 415.298 49.142C414.653 49.142 414.013 49.1605 413.385 49.1977C412.758 49.2348 412.155 49.2966 411.576 49.3894C410.997 49.4822 410.467 49.5935 409.974 49.742C409.481 49.8842 409.054 50.0698 408.701 50.3049C408.341 50.5337 408.061 50.8059 407.854 51.1275C407.653 51.4492 407.55 51.8203 407.55 52.2409C407.55 52.711 407.653 53.0945 407.854 53.4038C408.055 53.7131 408.323 53.9543 408.652 54.1337C408.981 54.3131 409.341 54.4368 409.743 54.511C410.139 54.5852 410.541 54.6161 410.937 54.6161C411.253 54.6161 411.625 54.5914 412.039 54.5357C412.082 54.5296 412.124 54.5234 412.173 54.5234C412.216 54.5234 412.265 54.5234 412.307 54.5234C412.6 54.5234 412.874 54.579 413.136 54.6904C413.398 54.8017 413.623 54.9564 413.812 55.1481C414.001 55.3399 414.153 55.5687 414.263 55.8285C414.372 56.0883 414.427 56.3666 414.427 56.6636C414.427 56.9233 414.384 57.1708 414.305 57.3996C414.226 57.6285 414.11 57.8388 413.964 58.0182C413.818 58.2037 413.647 58.3584 413.446 58.4883C413.245 58.6182 413.026 58.711 412.788 58.7666C411.838 58.9893 410.93 59.1068 410.047 59.1068C408.957 59.1068 407.927 58.9831 406.953 58.7357C405.978 58.4883 405.119 58.0986 404.382 57.5728C403.645 57.0471 403.06 56.379 402.627 55.5687C402.213 54.7522 402 53.7811 402 52.6492C402 51.6409 402.171 50.7502 402.506 49.9708C402.841 49.1915 403.316 48.5111 403.919 47.9358C404.528 47.3544 405.247 46.8657 406.088 46.4698C406.928 46.074 407.842 45.7585 408.841 45.5173C409.84 45.276 410.894 45.1152 412.009 45.0163C413.123 44.9235 414.269 44.8864 415.438 44.8987C415.609 44.8987 415.773 44.8987 415.938 44.9049C416.102 44.9111 416.267 44.9173 416.437 44.9235V42.9936C416.437 42.406 416.322 41.9235 416.084 41.5276C415.846 41.1318 415.548 40.8225 415.182 40.5874C414.817 40.3524 414.409 40.1854 413.964 40.0864C413.519 39.9874 413.093 39.938 412.673 39.938C412.228 39.938 411.802 39.9874 411.4 40.0864C410.991 40.1854 410.62 40.34 410.285 40.5503C409.95 40.7606 409.651 41.0266 409.389 41.3544C409.127 41.6761 408.914 42.0596 408.756 42.4988C408.658 42.7771 408.518 43.0369 408.341 43.2719C408.165 43.5132 407.958 43.7173 407.726 43.8843C407.489 44.0575 407.233 44.1874 406.953 44.2802C406.672 44.3915 406.38 44.441 406.069 44.441C405.679 44.441 405.314 44.3668 404.973 44.2183C404.632 44.0699 404.333 43.8658 404.083 43.6121C403.828 43.3524 403.626 43.0554 403.48 42.7091C403.334 42.3627 403.261 41.9915 403.261 41.5957C403.261 41.2184 403.328 40.8596 403.462 40.5132C403.834 39.5668 404.339 38.7751 404.979 38.1318C405.618 37.4885 406.349 36.9689 407.178 36.5792C408.006 36.1895 408.908 35.9112 409.889 35.7442C410.87 35.5772 411.887 35.4968 412.953 35.4968C413.653 35.4968 414.354 35.5462 415.061 35.639C415.767 35.7318 416.45 35.8988 417.114 36.1339V36.1215C417.302 35.9978 417.485 35.8308 417.668 35.6267C417.851 35.4225 417.991 35.2184 418.088 35.0143C418.32 34.5009 418.624 34.1112 418.996 33.8452C419.368 33.5793 419.843 33.4494 420.397 33.4494C420.75 33.4494 421.085 33.5174 421.402 33.6597C421.719 33.8019 421.987 33.9875 422.218 34.2287C422.45 34.47 422.627 34.7421 422.748 35.0576C422.87 35.3731 422.919 35.7133 422.895 36.072C422.852 36.6844 422.651 37.2163 422.298 37.6802C421.944 38.138 421.457 38.5648 420.848 38.9483C421.183 39.4864 421.451 40.105 421.646 40.8039C421.841 41.5029 421.938 42.2884 421.938 43.173V56.2615Z" fill="white"/>
<path d="M416.863 63.647C416.863 63.2944 416.93 62.9604 417.064 62.6511C417.198 62.3357 417.381 62.0635 417.606 61.8346C417.838 61.6058 418.106 61.4202 418.416 61.2903C418.727 61.1542 419.056 61.0862 419.403 61.0862C419.75 61.0862 420.079 61.1542 420.384 61.2903C420.695 61.4264 420.963 61.6058 421.188 61.8346C421.413 62.0635 421.596 62.3357 421.724 62.6511C421.858 62.9666 421.925 63.3006 421.925 63.647V64.9027C421.925 65.7501 421.809 66.548 421.584 67.2964C421.359 68.0449 420.993 68.7067 420.481 69.2696C419.97 69.8325 419.306 70.2779 418.483 70.6057C417.661 70.9335 416.65 71.1005 415.456 71.1005C414.377 71.1005 413.445 70.9706 412.666 70.7047C411.886 70.4387 411.234 70.0675 410.704 69.5974C410.174 69.1274 409.772 68.5583 409.492 67.9026C409.212 67.247 409.041 66.5233 408.98 65.7315L408.566 65.7191C408.274 65.7191 408.005 65.6635 407.756 65.5521C407.506 65.4408 407.293 65.2862 407.116 65.0882C406.939 64.8903 406.799 64.6614 406.702 64.3954C406.604 64.1295 406.556 63.8511 406.556 63.5542C406.556 63.2573 406.604 62.979 406.702 62.713C406.799 62.447 406.939 62.2181 407.116 62.0202C407.293 61.8223 407.506 61.6676 407.756 61.5563C408.005 61.445 408.274 61.3893 408.566 61.3893H412.02C412.312 61.3893 412.58 61.445 412.83 61.5563C413.08 61.6676 413.293 61.8223 413.47 62.0202C413.646 62.2181 413.787 62.447 413.884 62.713C413.981 62.979 414.03 63.2573 414.03 63.5542V64.915C414.03 65.5026 414.146 65.9418 414.371 66.2387C414.597 66.5356 414.956 66.6841 415.456 66.6841C416.394 66.6841 416.863 66.0965 416.863 64.915V63.647Z" fill="white"/>
<path d="M418.454 26.4474C418.575 26.1691 418.746 25.9279 418.965 25.7299C419.185 25.532 419.422 25.3835 419.69 25.2846C419.958 25.1856 420.232 25.1423 420.525 25.1485C420.817 25.1547 421.103 25.2227 421.378 25.3526C421.646 25.4763 421.877 25.6495 422.066 25.8722C422.261 26.0949 422.407 26.3361 422.498 26.6021C422.59 26.8681 422.639 27.1464 422.632 27.4433C422.626 27.7402 422.559 28.0309 422.425 28.3093C422.133 28.9278 421.737 29.5093 421.237 30.0474C420.738 30.5855 420.135 31.0556 419.422 31.4453C418.709 31.835 417.899 32.1443 416.973 32.367C416.053 32.5896 415.03 32.7072 413.903 32.7072H412.027C411.771 32.7072 411.539 32.6577 411.326 32.5649C411.113 32.4721 410.942 32.3422 410.802 32.1752C410.662 32.0082 410.553 31.8165 410.473 31.5938C410.4 31.3711 410.358 31.136 410.358 30.8824V29.0454H409.736C409.487 29.0454 409.261 28.9959 409.06 28.9031C408.859 28.8103 408.682 28.6804 408.536 28.5134C408.39 28.3464 408.274 28.1546 408.195 27.932C408.116 27.7093 408.073 27.4742 408.073 27.2206C408.073 26.967 408.116 26.732 408.195 26.5093C408.274 26.2866 408.39 26.0949 408.536 25.9279C408.682 25.7609 408.859 25.631 409.06 25.5382C409.261 25.4454 409.493 25.3959 409.736 25.3959H412.965C413.215 25.3959 413.44 25.4454 413.641 25.5382C413.842 25.631 414.019 25.7609 414.165 25.9279C414.311 26.0949 414.421 26.2866 414.506 26.5093C414.591 26.732 414.628 26.967 414.628 27.2206V28.7732C415.109 28.7484 415.548 28.668 415.956 28.5381C416.364 28.4082 416.73 28.235 417.052 28.0247C417.375 27.8144 417.656 27.5732 417.899 27.301C418.143 27.0289 418.326 26.7567 418.454 26.4474Z" fill="white"/>
<path d="M434.835 54.0657H435.341C435.652 54.0657 435.938 54.1275 436.2 54.245C436.462 54.3688 436.687 54.5296 436.87 54.7399C437.059 54.944 437.205 55.1914 437.309 55.4698C437.412 55.7481 437.467 56.045 437.467 56.3605C437.467 56.6759 437.412 56.9729 437.309 57.2512C437.205 57.5295 437.053 57.7708 436.87 57.9811C436.687 58.1914 436.462 58.3522 436.2 58.4759C435.938 58.5996 435.652 58.6553 435.341 58.6553H431.418C431.107 58.6553 430.821 58.5935 430.559 58.4759C430.297 58.3522 430.072 58.1914 429.889 57.9811C429.7 57.777 429.554 57.5295 429.45 57.2512C429.347 56.9729 429.292 56.6759 429.292 56.3605V32.67C429.292 32.3793 429.322 32.0824 429.383 31.7731C429.444 31.4638 429.535 31.1608 429.651 30.8762C429.767 30.5855 429.907 30.3195 430.065 30.0721C430.224 29.8247 430.401 29.6206 430.595 29.4597H425.984C425.673 29.4597 425.387 29.4041 425.119 29.2866C424.851 29.169 424.619 29.0144 424.418 28.8165C424.217 28.6185 424.065 28.3835 423.949 28.1175C423.834 27.8453 423.779 27.5546 423.779 27.2392C423.779 26.9361 423.834 26.6453 423.949 26.367C424.065 26.0948 424.224 25.8536 424.418 25.6495C424.613 25.4454 424.851 25.2845 425.119 25.1732C425.387 25.0619 425.673 25 425.984 25H435.713C436.023 25 436.316 25.0557 436.584 25.1732C436.852 25.2907 437.089 25.4515 437.29 25.6618C437.491 25.866 437.65 26.1072 437.759 26.3856C437.875 26.6577 437.93 26.9546 437.93 27.2701C437.93 27.7278 437.808 28.1422 437.57 28.5072C437.333 28.8721 437.016 29.1443 436.626 29.3237C436.066 29.5649 435.627 29.936 435.31 30.4309C434.994 30.9257 434.829 31.4762 434.829 32.0762V54.0657H434.835Z" fill="white"/>
<path d="M459.823 49.3647C459.823 50.1935 459.762 51.01 459.647 51.8141C459.525 52.6183 459.318 53.3853 459.019 54.1152C458.721 54.845 458.331 55.5131 457.843 56.1254C457.356 56.7378 456.747 57.2698 456.01 57.7213C455.273 58.1728 454.402 58.5192 453.396 58.7728C452.391 59.0264 451.228 59.1502 449.906 59.1502C448.578 59.1502 447.408 59.0264 446.397 58.7728C445.386 58.5192 444.515 58.1728 443.784 57.7213C443.053 57.2698 442.444 56.7378 441.956 56.1254C441.469 55.5131 441.079 54.845 440.793 54.1152C440.506 53.3853 440.299 52.6183 440.183 51.8141C440.062 51.01 440.007 50.1935 440.007 49.3647V38.3916C440.007 38.0019 440.08 37.6494 440.22 37.3277C440.36 37.0061 440.555 36.7277 440.805 36.4927C441.055 36.2576 441.341 36.0721 441.676 35.9422C442.005 35.8061 442.364 35.738 442.748 35.738C443.132 35.738 443.485 35.8061 443.82 35.9422C444.155 36.0782 444.442 36.2638 444.691 36.4927C444.941 36.7277 445.136 37.0061 445.282 37.3277C445.428 37.6494 445.502 38.0081 445.502 38.3916V49.7606C445.502 50.2987 445.575 50.8368 445.715 51.375C445.855 51.9131 446.099 52.3956 446.44 52.8286C446.781 53.2616 447.238 53.6141 447.804 53.8801C448.371 54.1523 449.077 54.2822 449.918 54.2822C450.753 54.2822 451.447 54.1461 452.008 53.8801C452.568 53.6079 453.013 53.2616 453.348 52.8286C453.683 52.3956 453.926 51.9131 454.067 51.375C454.207 50.8368 454.28 50.3049 454.28 49.7606V28.4763C454.28 28.0928 454.353 27.734 454.499 27.4124C454.645 27.0907 454.846 26.8124 455.096 26.5773C455.346 26.3423 455.644 26.1567 455.979 26.0268C456.314 25.8907 456.674 25.8227 457.058 25.8227C457.441 25.8227 457.795 25.8907 458.136 26.0268C458.477 26.1629 458.769 26.3484 459.019 26.5773C459.275 26.8124 459.47 27.0907 459.616 27.4124C459.762 27.734 459.835 28.0928 459.835 28.4763V49.3647H459.823Z" fill="white"/>
<path d="M479.852 44.7812C479.852 44.2617 479.761 43.7359 479.572 43.2039C479.383 42.672 479.091 42.1957 478.682 41.7813C478.274 41.3607 477.744 41.0205 477.093 40.7545C476.441 40.4885 475.655 40.3586 474.735 40.3586C473.797 40.3586 472.993 40.4885 472.329 40.7545C471.665 41.0205 471.123 41.3607 470.708 41.7813C470.294 42.2019 469.983 42.672 469.795 43.2039C469.6 43.7359 469.502 44.2617 469.502 44.7812V51.5296L472.615 48.4245H472.231C471.994 48.4245 471.768 48.3812 471.567 48.2884C471.366 48.1956 471.184 48.0719 471.031 47.9173C470.879 47.7627 470.751 47.5771 470.666 47.3606C470.574 47.1503 470.532 46.9214 470.532 46.6802C470.532 46.439 470.574 46.2101 470.666 45.9998C470.757 45.7895 470.879 45.6039 471.031 45.4493C471.184 45.2946 471.366 45.1709 471.567 45.0781C471.768 44.9854 471.994 44.9421 472.231 44.9421H476.855C477.129 44.9421 477.385 44.9916 477.629 45.0967C477.866 45.2019 478.079 45.3379 478.262 45.5173C478.445 45.6905 478.585 45.9008 478.689 46.1359C478.792 46.3771 478.841 46.6307 478.841 46.9091C478.841 47.1688 478.81 47.4225 478.743 47.6637C478.676 47.9049 478.536 48.1462 478.323 48.3812L469.295 57.9625C469.009 58.2656 468.68 58.5069 468.296 58.6863C467.912 58.8594 467.498 58.9522 467.047 58.9522C466.621 58.9522 466.219 58.8842 465.841 58.7481C465.463 58.612 465.134 58.4203 464.86 58.1667C464.58 57.9131 464.361 57.6162 464.202 57.2636C464.044 56.911 463.965 56.5213 463.965 56.0883V45.2204C463.965 44.3916 464.044 43.5751 464.196 42.771C464.349 41.9668 464.604 41.206 464.952 40.4823C465.305 39.7648 465.756 39.0968 466.31 38.4844C466.865 37.872 467.541 37.3463 468.339 36.9071C469.137 36.4679 470.063 36.1215 471.123 35.8679C472.183 35.6143 473.389 35.4906 474.747 35.4906C476.075 35.4906 477.263 35.6143 478.311 35.8679C479.359 36.1215 480.278 36.4679 481.07 36.9071C481.862 37.3463 482.532 37.872 483.087 38.4844C483.635 39.0968 484.086 39.7648 484.427 40.4823C484.774 41.1998 485.024 41.9668 485.176 42.771C485.329 43.5751 485.408 44.3916 485.408 45.2204V56.1378C485.408 56.5275 485.335 56.8801 485.188 57.2079C485.042 57.5357 484.841 57.8203 484.591 58.0553C484.336 58.2966 484.043 58.4821 483.708 58.6182C483.373 58.7543 483.014 58.8223 482.63 58.8223C482.246 58.8223 481.893 58.7543 481.552 58.6182C481.211 58.4821 480.924 58.2966 480.674 58.0553C480.425 57.8141 480.23 57.5357 480.084 57.2079C479.937 56.8801 479.864 56.5213 479.864 56.1378V44.7812H479.852Z" fill="white"/>
<path d="M481.929 26.4474C482.051 26.1691 482.221 25.9279 482.441 25.7299C482.66 25.532 482.897 25.3835 483.165 25.2846C483.434 25.1856 483.708 25.1423 484 25.1485C484.292 25.1547 484.579 25.2227 484.853 25.3526C485.121 25.4763 485.352 25.6495 485.541 25.8722C485.736 26.0949 485.882 26.3361 485.974 26.6021C486.065 26.8681 486.114 27.1464 486.108 27.4433C486.102 27.7402 486.035 28.0309 485.901 28.3093C485.608 28.9278 485.212 29.5093 484.713 30.0474C484.213 30.5855 483.61 31.0556 482.897 31.4453C482.185 31.835 481.375 32.1443 480.449 32.367C479.529 32.5896 478.505 32.7072 477.378 32.7072H475.502C475.246 32.7072 475.015 32.6577 474.802 32.5649C474.588 32.4721 474.418 32.3422 474.278 32.1752C474.138 32.0082 474.028 31.8165 473.949 31.5938C473.876 31.3711 473.833 31.136 473.833 30.8824V29.0454H473.193C472.944 29.0454 472.718 28.9959 472.517 28.9031C472.316 28.8103 472.139 28.6804 471.993 28.5134C471.847 28.3464 471.731 28.1546 471.652 27.932C471.573 27.7093 471.53 27.4742 471.53 27.2206C471.53 26.967 471.573 26.732 471.652 26.5093C471.731 26.2866 471.847 26.0949 471.993 25.9279C472.139 25.7609 472.316 25.631 472.517 25.5382C472.718 25.4454 472.95 25.3959 473.193 25.3959H476.422C476.672 25.3959 476.897 25.4454 477.098 25.5382C477.299 25.631 477.476 25.7609 477.622 25.9279C477.768 26.0949 477.878 26.2866 477.963 26.5093C478.048 26.732 478.085 26.967 478.085 27.2206V28.7732C478.566 28.7484 479.005 28.668 479.413 28.5381C479.821 28.4082 480.187 28.235 480.509 28.0247C480.832 27.8144 481.113 27.5732 481.356 27.301C481.6 27.0289 481.795 26.7567 481.929 26.4474Z" fill="white"/>
<path d="M497.811 59.1501C496.782 59.1501 495.838 59.0203 494.967 58.7605C494.096 58.5007 493.316 58.1295 492.621 57.6471C491.927 57.1646 491.318 56.5832 490.8 55.8966C490.282 55.21 489.856 54.4554 489.533 53.6141C489.393 53.2554 489.332 52.8904 489.35 52.5131C489.368 52.142 489.448 51.7894 489.594 51.4616C489.74 51.1337 489.947 50.843 490.209 50.5832C490.471 50.3234 490.788 50.1317 491.153 49.9956C491.519 49.8595 491.884 49.8039 492.25 49.8286C492.615 49.8533 492.962 49.9399 493.279 50.1008C493.596 50.2554 493.882 50.4719 494.126 50.7441C494.37 51.0162 494.552 51.3317 494.68 51.7028C494.82 52.1358 495.003 52.5131 495.222 52.8347C495.442 53.1564 495.692 53.4286 495.96 53.6389C496.228 53.8492 496.52 54.01 496.837 54.1151C497.154 54.2203 497.476 54.276 497.811 54.276C498.421 54.276 498.975 54.1399 499.462 53.8615C499.95 53.5894 500.364 53.1688 500.699 52.5997C501.034 52.0306 501.29 51.3131 501.473 50.4348C501.655 49.5564 501.741 48.5173 501.741 47.3111C501.741 46.1173 501.649 45.0781 501.473 44.1936C501.296 43.3091 501.04 42.5792 500.699 41.9978C500.358 41.4163 499.95 40.9895 499.462 40.7112C498.975 40.4328 498.427 40.2906 497.811 40.2906C497.476 40.2906 497.154 40.3462 496.843 40.4514C496.532 40.5565 496.24 40.7174 495.966 40.9277C495.692 41.138 495.448 41.4039 495.229 41.7318C495.009 42.0534 494.833 42.4307 494.693 42.8637C494.571 43.2349 494.382 43.5503 494.138 43.8225C493.895 44.0946 493.614 44.3049 493.291 44.4658C492.975 44.6204 492.627 44.7132 492.262 44.7379C491.896 44.7627 491.531 44.707 491.165 44.5709C490.8 44.4348 490.489 44.2431 490.221 43.9833C489.953 43.7235 489.746 43.4328 489.594 43.105C489.441 42.7771 489.356 42.4246 489.344 42.0534C489.326 41.6823 489.387 41.3112 489.527 40.9524C489.856 40.1174 490.288 39.3565 490.824 38.67C491.36 37.9895 491.982 37.4081 492.694 36.9318C493.407 36.4555 494.187 36.0844 495.046 35.8246C495.905 35.5648 496.825 35.4349 497.811 35.4349C499.468 35.4349 500.906 35.7195 502.124 36.2947C503.343 36.87 504.354 37.6741 505.146 38.7133C505.944 39.7524 506.535 41.0019 506.919 42.4617C507.302 43.9214 507.497 45.542 507.497 47.3235C507.497 49.1049 507.302 50.7255 506.919 52.1853C506.535 53.645 505.944 54.8883 505.146 55.9213C504.348 56.9543 503.343 57.7522 502.124 58.3151C500.906 58.8718 499.468 59.1501 497.811 59.1501Z" fill="white"/>
<path d="M524.609 38.3792C524.609 37.9957 524.682 37.637 524.828 37.3153C524.974 36.9937 525.169 36.7153 525.419 36.4803C525.669 36.2452 525.955 36.0597 526.29 35.9298C526.625 35.7937 526.978 35.7257 527.362 35.7257C527.74 35.7257 528.099 35.7937 528.434 35.9298C528.763 36.0659 529.056 36.2514 529.305 36.4803C529.555 36.7153 529.75 36.9937 529.896 37.3153C530.042 37.637 530.116 37.9957 530.116 38.3792V50.5276C530.116 51.9502 529.86 53.1997 529.354 54.2884C528.842 55.3708 528.154 56.2801 527.277 57.01C526.4 57.7399 525.37 58.2904 524.194 58.6553C523.013 59.0264 521.758 59.2058 520.418 59.2058C519.595 59.2058 518.779 59.1378 517.963 59.0017C517.146 58.8656 516.379 58.6553 515.648 58.377C514.917 58.0924 514.234 57.7399 513.607 57.3131C512.98 56.8863 512.437 56.3791 511.981 55.8038C511.524 55.2224 511.164 54.5667 510.902 53.8244C510.64 53.0884 510.512 52.2657 510.512 51.3564C510.512 50.2492 510.689 49.2719 511.036 48.4183C511.39 47.5709 511.956 46.9091 512.742 46.439C512.37 46.1359 512.041 45.7957 511.767 45.4307C511.487 45.0658 511.256 44.6885 511.067 44.2988C510.878 43.9091 510.744 43.507 510.646 43.0988C510.555 42.6905 510.506 42.2885 510.506 41.905C510.506 41.1194 510.61 40.4328 510.811 39.8328C511.012 39.2328 511.286 38.7194 511.627 38.2803C511.968 37.8411 512.364 37.4823 512.815 37.1854C513.266 36.8947 513.741 36.6597 514.247 36.4865C514.746 36.3133 515.258 36.1834 515.776 36.1092C516.293 36.0349 516.787 35.9916 517.256 35.9916H519.077C519.394 35.9916 519.693 36.0535 519.973 36.171C520.253 36.2885 520.497 36.4617 520.71 36.6782C520.923 36.8947 521.088 37.1421 521.21 37.4267C521.331 37.7112 521.386 38.0143 521.386 38.3359C521.386 38.6576 521.325 38.9607 521.21 39.2452C521.088 39.5297 520.923 39.7772 520.71 39.9937C520.497 40.2101 520.253 40.3772 519.973 40.5009C519.693 40.6246 519.394 40.6802 519.077 40.6802H517.963C517.628 40.6802 517.335 40.7235 517.085 40.804C516.836 40.8844 516.635 40.9957 516.476 41.1318C516.318 41.2679 516.196 41.4287 516.123 41.6081C516.05 41.7875 516.007 41.973 516.007 42.1648C516.007 42.4431 516.056 42.7029 516.147 42.9503C516.239 43.1916 516.379 43.4081 516.568 43.5998C516.75 43.7916 516.982 43.94 517.25 44.0575C517.518 44.1751 517.835 44.2493 518.188 44.274H519.291C519.583 44.274 519.857 44.3297 520.107 44.441C520.363 44.5524 520.582 44.707 520.771 44.8988C520.96 45.0905 521.112 45.3194 521.222 45.573C521.331 45.8328 521.386 46.1049 521.386 46.4018C521.386 46.6987 521.331 46.9771 521.222 47.2307C521.112 47.4843 520.96 47.707 520.771 47.8987C520.582 48.0905 520.357 48.2389 520.107 48.3503C519.857 48.4616 519.583 48.5173 519.291 48.5173H518.401C518.103 48.5358 517.81 48.5791 517.536 48.6472C517.262 48.7152 517.018 48.8389 516.805 49.0245C516.592 49.2101 516.421 49.4698 516.3 49.8162C516.178 50.1564 516.111 50.6142 516.111 51.177C516.111 51.709 516.233 52.1791 516.476 52.5873C516.72 52.9956 517.043 53.342 517.445 53.6265C517.847 53.911 518.31 54.1275 518.822 54.276C519.333 54.4244 519.863 54.4987 520.405 54.4987C521.008 54.4987 521.569 54.4059 522.081 54.2265C522.592 54.0471 523.037 53.7688 523.409 53.3915C523.78 53.0141 524.073 52.5255 524.286 51.9317C524.499 51.3379 524.603 50.6265 524.603 49.7977V38.3792H524.609Z" fill="white"/>
<path d="M548.457 44.7256C548.457 44.206 548.378 43.6864 548.214 43.1668C548.049 42.6472 547.775 42.1833 547.391 41.7689C547.008 41.3545 546.496 41.0205 545.862 40.7607C545.229 40.5009 544.443 40.3648 543.505 40.3462C542.786 40.3401 542.152 40.4019 541.598 40.5442C541.044 40.6864 540.569 40.8658 540.179 41.0885C539.789 41.3112 539.466 41.5586 539.222 41.8308C538.979 42.1029 538.814 42.3627 538.723 42.6163C539.186 43.0369 539.533 43.5813 539.771 44.2431C540.008 44.905 540.13 45.6534 540.13 46.4884V56.1316C540.13 56.5213 540.057 56.8739 539.911 57.1955C539.765 57.5172 539.563 57.8017 539.314 58.0368C539.058 58.278 538.765 58.4574 538.43 58.5873C538.095 58.7172 537.736 58.7852 537.352 58.7852C536.968 58.7852 536.615 58.7172 536.274 58.5873C535.939 58.4574 535.64 58.2718 535.391 58.0368C535.141 57.7955 534.94 57.5172 534.794 57.1955C534.647 56.8739 534.574 56.5151 534.574 56.1316V46.439C534.574 46.1173 534.526 45.7771 534.428 45.4307C534.331 45.0843 534.148 44.7441 533.886 44.4101C533.636 44.107 533.441 43.841 533.295 43.6246C533.149 43.4081 533.051 43.2039 533.009 43.006C532.966 42.8081 532.966 42.5978 533.015 42.3813C533.064 42.1586 533.155 41.8926 533.289 41.5772C533.636 40.7792 534.093 40.0122 534.666 39.2762C535.238 38.5401 535.939 37.8968 536.773 37.3339C537.608 36.771 538.583 36.3257 539.698 35.9916C540.812 35.6576 542.085 35.4906 543.511 35.4906C544.857 35.4906 546.051 35.6143 547.093 35.8618C548.135 36.1092 549.048 36.4494 549.834 36.8885C550.62 37.3277 551.278 37.8473 551.82 38.4535C552.362 39.0597 552.795 39.7215 553.13 40.4328C553.465 41.1442 553.702 41.8926 553.855 42.6844C554.007 43.4761 554.08 44.2802 554.08 45.1029V56.076C554.08 56.4718 554.007 56.8368 553.861 57.1646C553.715 57.4924 553.514 57.777 553.258 58.0244C553.002 58.2656 552.703 58.4574 552.362 58.5935C552.021 58.7295 551.662 58.7976 551.278 58.7976C550.888 58.7976 550.522 58.7295 550.187 58.5935C549.852 58.4574 549.554 58.2718 549.298 58.0244C549.042 57.7832 548.841 57.4986 548.695 57.1646C548.549 56.8368 548.476 56.4718 548.476 56.076V44.7256H548.457Z" fill="white"/>
<path d="M541.476 28.4763C541.476 28.1361 541.543 27.8206 541.671 27.5299C541.798 27.2392 541.975 26.9918 542.194 26.7877C542.414 26.5835 542.676 26.4165 542.98 26.299C543.279 26.1815 543.602 26.1258 543.937 26.1258C544.272 26.1258 544.588 26.1877 544.887 26.299C545.185 26.4165 545.441 26.5774 545.667 26.7877C545.886 26.9918 546.063 27.2392 546.191 27.5299C546.319 27.8206 546.386 28.1299 546.386 28.4763H555.413C555.706 28.4763 555.974 28.532 556.218 28.6433C556.461 28.7546 556.674 28.9093 556.851 29.1072C557.028 29.3052 557.168 29.534 557.265 29.7938C557.363 30.0536 557.412 30.3319 557.412 30.6289C557.412 30.9258 557.363 31.2041 557.265 31.4639C557.168 31.7237 557.028 31.9526 556.851 32.1443C556.674 32.3361 556.461 32.4907 556.218 32.602C555.974 32.7134 555.706 32.769 555.413 32.769H543.937C543.602 32.769 543.279 32.7134 542.98 32.5958C542.676 32.4783 542.42 32.3175 542.194 32.1072C541.975 31.9031 541.798 31.6556 541.671 31.3649C541.543 31.0742 541.476 30.7649 541.476 30.4185V28.4763Z" fill="white"/>
<path d="M558.198 38.4225C558.198 38.039 558.271 37.6803 558.411 37.3525C558.551 37.0246 558.746 36.7401 558.996 36.4989C559.245 36.2576 559.538 36.0721 559.873 35.936C560.208 35.7999 560.567 35.7318 560.951 35.7318C561.329 35.7318 561.688 35.7999 562.029 35.936C562.364 36.0721 562.657 36.2576 562.906 36.4989C563.156 36.7401 563.351 37.0184 563.491 37.3525C563.631 37.6803 563.704 38.039 563.704 38.4225V50.6636C563.704 51.1956 563.784 51.6657 563.948 52.0801C564.113 52.4946 564.344 52.8409 564.636 53.1255C564.935 53.41 565.294 53.6265 565.715 53.775C566.135 53.9234 566.61 53.9976 567.128 53.9976C568.023 53.9976 568.803 53.8616 569.473 53.5832C570.143 53.311 570.698 52.9275 571.142 52.4389C571.587 51.9502 571.916 51.3688 572.141 50.6884C572.361 50.0142 572.47 49.2781 572.47 48.474V38.4225C572.47 38.039 572.544 37.6803 572.69 37.3525C572.836 37.0246 573.037 36.7401 573.287 36.4989C573.543 36.2576 573.835 36.0721 574.17 35.936C574.505 35.7999 574.864 35.7318 575.248 35.7318C575.632 35.7318 575.985 35.7999 576.326 35.936C576.668 36.0721 576.954 36.2576 577.204 36.4989C577.453 36.7401 577.648 37.0184 577.795 37.3525C577.941 37.6803 578.014 38.039 578.014 38.4225V56.4285C578.014 56.8059 577.947 57.1522 577.807 57.4677C577.667 57.7832 577.484 58.0553 577.24 58.2842C576.997 58.5131 576.722 58.6924 576.393 58.8161C576.065 58.9398 575.723 59.0079 575.352 59.0079C574.98 59.0079 574.633 58.946 574.31 58.8161C573.987 58.6862 573.707 58.5131 573.463 58.2842C573.22 58.0553 573.031 57.7832 572.891 57.4677C572.751 57.1522 572.678 56.8059 572.678 56.4285V56.1564C571.764 57.0842 570.783 57.7955 569.741 58.2904C568.694 58.7852 567.609 59.0326 566.482 59.0326C564.959 59.0326 563.668 58.8409 562.614 58.4636C561.56 58.0863 560.707 57.5419 560.049 56.8306C559.391 56.1193 558.922 55.2533 558.63 54.2265C558.338 53.1997 558.191 52.043 558.191 50.7441V38.4225H558.198Z" fill="white"/>
<path d="M442.678 86.1244H444.29L444.567 83.9747H443.069V82.8999H444.73L445.17 79.8056H446.261L445.821 82.8999H447.613L448.036 79.8056H449.16L448.736 82.8999H450.055V83.9747H448.606L448.297 86.1244H449.616V87.2156H448.117L447.694 90.3099H446.554L446.994 87.2156H445.251L444.811 90.3099H443.688L444.111 87.2156H442.678V86.1244ZM447.173 86.1244L447.466 83.9747H445.723L445.398 86.1244H447.173ZM451.254 87.9973C451.254 87.5521 451.33 87.1613 451.482 86.8247C451.634 86.4881 451.835 86.2059 452.084 85.9779C452.334 85.739 452.627 85.5436 452.964 85.3916C453.3 85.2396 453.648 85.1256 454.006 85.0496C454.375 84.9627 454.744 84.903 455.113 84.8704C455.493 84.8379 455.852 84.8216 456.188 84.8216C456.395 84.8216 456.595 84.827 456.791 84.8379C456.986 84.8379 457.171 84.8379 457.345 84.8379V84.0399C457.345 83.6707 457.285 83.3776 457.165 83.1604C457.046 82.9433 456.889 82.775 456.693 82.6556C456.498 82.5361 456.281 82.4547 456.042 82.4113C455.814 82.3679 455.58 82.3461 455.341 82.3461C455.027 82.3461 454.733 82.3787 454.462 82.4439C454.201 82.4981 453.973 82.5904 453.778 82.7207C453.583 82.851 453.425 83.0301 453.306 83.2581C453.197 83.4861 453.132 83.763 453.11 84.0887H451.612C451.634 83.535 451.748 83.0681 451.954 82.6881C452.171 82.3081 452.448 82.0041 452.785 81.7761C453.132 81.5373 453.534 81.369 453.99 81.2713C454.446 81.1627 454.929 81.1084 455.439 81.1084C455.667 81.1084 455.922 81.1301 456.205 81.1736C456.487 81.2061 456.742 81.2713 456.97 81.369C457.285 81.3581 457.535 81.2441 457.719 81.027C457.915 80.8099 458.023 80.5927 458.045 80.3756H459.641C459.641 80.5276 459.608 80.6959 459.543 80.8804C459.489 81.0541 459.397 81.2224 459.266 81.3853C459.136 81.5373 458.973 81.6839 458.778 81.825C458.582 81.9553 458.354 82.053 458.094 82.1181C458.289 82.3136 458.452 82.5741 458.582 82.8999C458.723 83.2256 458.794 83.5893 458.794 83.991V90.3099H457.345V86.0919C457.269 86.0701 457.16 86.0539 457.019 86.043C456.878 86.0321 456.704 86.0267 456.498 86.0267C456.302 86.0267 456.069 86.0376 455.797 86.0593C455.537 86.0701 455.265 86.1027 454.983 86.157C454.712 86.2004 454.44 86.2656 454.169 86.3524C453.908 86.4284 453.669 86.537 453.452 86.6781C453.246 86.8193 453.078 86.9876 452.947 87.183C452.817 87.3784 452.752 87.6119 452.752 87.8833C452.752 88.1656 452.806 88.399 452.915 88.5836C453.034 88.7681 453.175 88.9147 453.338 89.0233C453.512 89.121 453.707 89.1916 453.925 89.235C454.142 89.2676 454.364 89.2839 454.592 89.2839C454.755 89.2839 454.907 89.2784 455.048 89.2676C455.189 89.2459 455.331 89.2187 455.472 89.1861V90.3261C455.265 90.3804 455.065 90.4239 454.869 90.4564C454.685 90.489 454.473 90.5053 454.234 90.5053C453.843 90.5053 453.463 90.4564 453.094 90.3587C452.725 90.2719 452.405 90.1307 452.133 89.9353C451.873 89.7399 451.661 89.4847 451.498 89.1699C451.335 88.855 451.254 88.4641 451.254 87.9973ZM464.453 89.2513C464.887 89.2513 465.251 89.1807 465.544 89.0396C465.837 88.8876 466.071 88.6976 466.244 88.4696C466.418 88.2416 466.538 87.9864 466.603 87.7041C466.679 87.411 466.717 87.1233 466.717 86.841V77.3301H468.199V86.6619C468.199 87.1613 468.144 87.639 468.036 88.095C467.927 88.551 467.732 88.9581 467.45 89.3164C467.167 89.6747 466.782 89.9624 466.293 90.1796C465.816 90.3967 465.202 90.5053 464.453 90.5053C463.693 90.5053 463.069 90.3967 462.58 90.1796C462.102 89.9624 461.722 89.6747 461.44 89.3164C461.158 88.9581 460.962 88.551 460.854 88.095C460.756 87.639 460.707 87.1613 460.707 86.6619V81.2713H462.157V86.841C462.157 87.1233 462.195 87.411 462.271 87.7041C462.347 87.9864 462.472 88.2416 462.645 88.4696C462.819 88.6976 463.052 88.8876 463.346 89.0396C463.639 89.1807 464.008 89.2513 464.453 89.2513ZM470.091 84.8867C470.091 84.409 470.145 83.9421 470.253 83.4861C470.362 83.0193 470.557 82.6121 470.84 82.2647C471.133 81.9064 471.529 81.6187 472.029 81.4016C472.528 81.1844 473.158 81.0759 473.918 81.0759C474.667 81.0759 475.286 81.1844 475.774 81.4016C476.274 81.6187 476.67 81.9064 476.963 82.2647C477.256 82.6121 477.457 83.0193 477.566 83.4861C477.685 83.9421 477.745 84.409 477.745 84.8867V90.3099H476.279V84.6913C476.279 84.4199 476.247 84.1484 476.181 83.877C476.116 83.5947 475.997 83.3396 475.823 83.1116C475.649 82.8836 475.411 82.699 475.107 82.5579C474.803 82.4167 474.406 82.3461 473.918 82.3461C473.429 82.3461 473.027 82.4167 472.713 82.5579C472.409 82.699 472.17 82.8836 471.996 83.1116C471.822 83.3396 471.703 83.5947 471.638 83.877C471.573 84.1484 471.54 84.4199 471.54 84.6913V88.437L473.592 86.0919H472.761V84.9681H475.041V86.0919L471.54 90.3099H470.091V84.8867ZM479.079 83.8933C479.155 83.5567 479.285 83.2201 479.47 82.8836C479.654 82.547 479.909 82.2484 480.235 81.9879C480.572 81.7164 480.973 81.4993 481.44 81.3364C481.918 81.1627 482.477 81.0759 483.118 81.0759C483.889 81.0759 484.529 81.1844 485.039 81.4016C485.55 81.6079 485.962 81.8847 486.277 82.2321C486.592 82.5796 486.815 82.9813 486.945 83.4373C487.075 83.8933 487.14 84.3601 487.14 84.8379V90.3099H485.658V84.675C485.658 84.2733 485.593 83.9259 485.463 83.6327C485.333 83.3396 485.153 83.1007 484.925 82.9161C484.697 82.7207 484.421 82.5796 484.095 82.4927C483.78 82.395 483.433 82.3461 483.053 82.3461C482.651 82.3461 482.298 82.4059 481.994 82.5253C481.69 82.6339 481.435 82.7696 481.229 82.9324C481.033 83.0844 480.881 83.2527 480.773 83.4373C480.675 83.611 480.615 83.763 480.593 83.8933C480.8 84.0127 480.957 84.2136 481.066 84.4959C481.185 84.7781 481.245 85.093 481.245 85.4404V90.3099H479.795V85.4241C479.795 85.1419 479.747 84.865 479.649 84.5936C479.562 84.3113 479.372 84.0779 479.079 83.8933ZM490.107 87.411C490.107 87.7367 490.156 88.0136 490.254 88.2416C490.362 88.4696 490.503 88.6596 490.677 88.8116C490.862 88.9636 491.073 89.0776 491.312 89.1536C491.551 89.2187 491.806 89.2513 492.078 89.2513C492.273 89.2513 492.479 89.2296 492.697 89.1861C492.914 89.1319 493.109 89.0504 493.283 88.9419C493.467 88.8224 493.614 88.6759 493.723 88.5021C493.842 88.3176 493.902 88.0896 493.902 87.8181C493.902 87.5793 493.847 87.373 493.739 87.1993C493.641 87.0256 493.5 86.879 493.315 86.7596C493.131 86.6401 492.914 86.5424 492.664 86.4664C492.414 86.3796 492.148 86.3036 491.866 86.2384C491.519 86.1516 491.166 86.043 490.807 85.9127C490.46 85.7824 490.145 85.6196 489.863 85.4241C489.581 85.2287 489.347 84.9844 489.163 84.6913C488.989 84.3873 488.902 84.029 488.902 83.6164C488.902 83.1713 488.989 82.7913 489.163 82.4764C489.336 82.1616 489.564 81.9064 489.847 81.711C490.129 81.5047 490.444 81.3527 490.791 81.255C491.149 81.1573 491.508 81.1084 491.866 81.1084C492.3 81.1084 492.713 81.1627 493.104 81.2713C493.505 81.369 493.853 81.5373 494.146 81.7761C494.45 82.0041 494.689 82.3027 494.863 82.6719C495.036 83.0301 495.123 83.4699 495.123 83.991H493.641C493.641 83.4807 493.489 83.0736 493.185 82.7696C492.881 82.4547 492.479 82.2973 491.98 82.2973C491.535 82.2973 491.149 82.4059 490.824 82.623C490.509 82.8293 490.351 83.155 490.351 83.6001C490.351 83.8173 490.406 84.0019 490.514 84.1539C490.623 84.3059 490.769 84.4361 490.954 84.5447C491.139 84.6533 491.35 84.7456 491.589 84.8216C491.828 84.8976 492.083 84.9627 492.355 85.017C492.832 85.1364 493.256 85.2667 493.625 85.4079C494.005 85.5381 494.32 85.701 494.569 85.8964C494.83 86.0919 495.025 86.3307 495.156 86.613C495.286 86.8844 495.351 87.221 495.351 87.6227C495.351 88.1764 495.253 88.6379 495.058 89.007C494.863 89.3761 494.602 89.6693 494.276 89.8864C493.961 90.1036 493.603 90.2556 493.201 90.3424C492.8 90.4401 492.393 90.489 491.98 90.489C491.535 90.489 491.106 90.4293 490.693 90.3099C490.281 90.2013 489.917 90.0221 489.602 89.7724C489.298 89.5227 489.054 89.2024 488.869 88.8116C488.696 88.4207 488.609 87.9539 488.609 87.411H490.107ZM503.728 84.219C503.728 84.5664 503.658 84.9953 503.516 85.5056C503.375 86.0159 503.202 86.5533 502.995 87.1179C502.789 87.6824 502.566 88.247 502.328 88.8116C502.1 89.3653 501.882 89.8647 501.676 90.3099H499.64L498.224 86.1407H497.051V85.017H499.364L500.683 89.007C500.824 88.6813 500.976 88.3121 501.139 87.8996C501.312 87.487 501.475 87.0744 501.627 86.6619C501.779 86.2384 501.904 85.8259 502.002 85.4241C502.1 85.0224 502.154 84.6641 502.165 84.3493C502.186 83.0139 501.519 82.3461 500.162 82.3461C499.619 82.3461 499.179 82.4764 498.842 82.737C498.517 82.9976 498.3 83.383 498.191 83.8933H496.562C496.628 83.4916 496.758 83.117 496.953 82.7696C497.16 82.4221 497.42 82.129 497.735 81.8901C498.061 81.6404 498.441 81.4504 498.875 81.3201C499.309 81.179 499.798 81.1084 500.341 81.1084C500.732 81.1084 501.128 81.1573 501.53 81.255C501.942 81.3419 502.311 81.5047 502.637 81.7436C502.963 81.9716 503.223 82.2864 503.419 82.6881C503.625 83.0899 503.728 83.6001 503.728 84.219ZM506.6 87.411C506.6 87.7367 506.648 88.0136 506.746 88.2416C506.855 88.4696 506.996 88.6596 507.17 88.8116C507.354 88.9636 507.566 89.0776 507.805 89.1536C508.044 89.2187 508.299 89.2513 508.57 89.2513C508.766 89.2513 508.972 89.2296 509.189 89.1861C509.406 89.1319 509.602 89.0504 509.775 88.9419C509.96 88.8224 510.106 88.6759 510.215 88.5021C510.334 88.3176 510.394 88.0896 510.394 87.8181C510.394 87.5793 510.34 87.373 510.231 87.1993C510.134 87.0256 509.992 86.879 509.808 86.7596C509.623 86.6401 509.406 86.5424 509.156 86.4664C508.907 86.3796 508.641 86.3036 508.358 86.2384C508.011 86.1516 507.658 86.043 507.3 85.9127C506.952 85.7824 506.638 85.6196 506.355 85.4241C506.073 85.2287 505.84 84.9844 505.655 84.6913C505.481 84.3873 505.394 84.029 505.394 83.6164C505.394 83.1713 505.481 82.7913 505.655 82.4764C505.829 82.1616 506.057 81.9064 506.339 81.711C506.621 81.5047 506.936 81.3527 507.284 81.255C507.642 81.1573 508 81.1084 508.358 81.1084C508.793 81.1084 509.205 81.1627 509.596 81.2713C509.998 81.369 510.345 81.5373 510.638 81.7761C510.942 82.0041 511.181 82.3027 511.355 82.6719C511.529 83.0301 511.616 83.4699 511.616 83.991H510.134C510.134 83.4807 509.982 83.0736 509.678 82.7696C509.374 82.4547 508.972 82.2973 508.472 82.2973C508.027 82.2973 507.642 82.4059 507.316 82.623C507.001 82.8293 506.844 83.155 506.844 83.6001C506.844 83.8173 506.898 84.0019 507.007 84.1539C507.115 84.3059 507.262 84.4361 507.446 84.5447C507.631 84.6533 507.843 84.7456 508.082 84.8216C508.32 84.8976 508.576 84.9627 508.847 85.017C509.325 85.1364 509.748 85.2667 510.117 85.4079C510.497 85.5381 510.812 85.701 511.062 85.8964C511.322 86.0919 511.518 86.3307 511.648 86.613C511.778 86.8844 511.844 87.221 511.844 87.6227C511.844 88.1764 511.746 88.6379 511.55 89.007C511.355 89.3761 511.094 89.6693 510.769 89.8864C510.454 90.1036 510.096 90.2556 509.694 90.3424C509.292 90.4401 508.885 90.489 508.472 90.489C508.027 90.489 507.598 90.4293 507.186 90.3099C506.773 90.2013 506.41 90.0221 506.095 89.7724C505.791 89.5227 505.546 89.2024 505.362 88.8116C505.188 88.4207 505.101 87.9539 505.101 87.411H506.6ZM512.843 83.8933C512.919 83.5567 513.049 83.2201 513.234 82.8836C513.419 82.547 513.674 82.2484 513.999 81.9879C514.336 81.7164 514.738 81.4993 515.205 81.3364C515.682 81.1627 516.241 81.0759 516.882 81.0759C517.653 81.0759 518.293 81.1844 518.804 81.4016C519.314 81.6079 519.727 81.8847 520.041 82.2321C520.356 82.5796 520.579 82.9813 520.709 83.4373C520.839 83.8933 520.905 84.3601 520.905 84.8379V90.3099H519.423V84.675C519.423 84.2733 519.357 83.9259 519.227 83.6327C519.097 83.3396 518.918 83.1007 518.69 82.9161C518.462 82.7207 518.185 82.5796 517.859 82.4927C517.544 82.395 517.197 82.3461 516.817 82.3461C516.415 82.3461 516.062 82.4059 515.758 82.5253C515.454 82.6339 515.199 82.7696 514.993 82.9324C514.797 83.0844 514.645 83.2527 514.537 83.4373C514.439 83.611 514.379 83.763 514.358 83.8933C514.564 84.0127 514.721 84.2136 514.83 84.4959C514.949 84.7781 515.009 85.093 515.009 85.4404V90.3099H513.56V85.4241C513.56 85.1419 513.511 84.865 513.413 84.5936C513.326 84.3113 513.136 84.0779 512.843 83.8933ZM522.797 81.2713H524.246V86.3687C524.246 86.7813 524.3 87.1613 524.409 87.5087C524.528 87.8453 524.702 88.1439 524.93 88.4044C525.158 88.6541 525.44 88.855 525.777 89.007C526.113 89.1481 526.51 89.2187 526.966 89.2187C527.53 89.2187 527.975 89.0504 528.301 88.7139C528.638 88.3773 528.806 87.9321 528.806 87.3784V81.2713H530.288V87.2156C530.288 87.7041 530.234 88.1547 530.125 88.5673C530.027 88.969 529.859 89.3164 529.62 89.6096C529.381 89.8919 529.061 90.1199 528.659 90.2936C528.269 90.4564 527.769 90.5379 527.161 90.5379C525.793 90.5379 524.805 89.9787 524.197 88.8604V90.3099H522.797V81.2713Z" fill="white"/>
</g>
<defs>
<linearGradient id="paint0_linear" x1="490.09" y1="0.321772" x2="489.997" y2="140.322" gradientUnits="userSpaceOnUse">
<stop stop-color="#01BBE5"/>
<stop offset="1" stop-color="#0070A8"/>
</linearGradient>
<clipPath id="clip0">
<rect width="980" height="154" fill="white"/>
</clipPath>
<clipPath id="clip1">
<rect x="616.852" y="69.3557" width="42.8197" height="63.2211" fill="white"/>
</clipPath>
<clipPath id="clip2">
<path d="M672.507 87.7994H689.089V104.381H672.507V87.7994Z" fill="white"/>
</clipPath>
<clipPath id="clip3">
<path d="M311.785 94.3559H300.16V105.982H311.785V94.3559Z" fill="white"/>
</clipPath>
</defs>
</svg>
